<svg xmlns="http://www.w3.org/2000/svg" width="64" height="64" x="0" y="0" viewBox="0 0 64 64">
  <path fill="#9adcf6" d="M46,60c-9.9,0-18-8.1-18-18s8.1-18,18-18s18,8.1,18,18S55.9,60,46,60z"></path>
  <path fill="#9af6b4" d="M18,60C8.1,60,0,51.9,0,42s8.1-18,18-18s18,8.1,18,18S27.9,60,18,60z"></path>
  <path fill="#f69aae" d="M14,18c0-9.9,8.1-18,18-18s18,8.1,18,18s-8.1,18-18,18S14,27.9,14,18z"></path>
  <path fill="#ffffff" d="M29.1,35.8C30.1,35.9,31,36,32,36s1.9-0.1,2.9-0.2c-0.7-1.8-1.6-3.6-2.9-5.1C30.8,32.2,29.8,33.9,29.1,35.8z"></path>
  <path fill="#f6f6b4" d="M29.1,35.8c0.7-1.8,1.6-3.6,2.9-5.1c-3.3-4.1-8.3-6.7-14-6.7c-1,0-1.9,0.1-2.9,0.2C17.4,30.2,22.7,34.7,29.1,35.8z"></path>
  <path fill="#f6dcf6" d="M32,30.7c1.2,1.5,2.2,3.2,2.9,5.1c6.5-1,11.8-5.5,14-11.5C47.9,24.1,47,24,46,24C40.3,24,35.3,26.6,32,30.7z"></path>
  <path fill="#9af6f6" d="M34.9,35.8C33.9,35.9,33,36,32,36s-1.9-0.1-2.9-0.2c-0.7,1.9-1.1,4-1.1,6.2c0,4.3,1.5,8.2,4,11.3c2.5-3.1,4-7,4-11.3C36,39.8,35.6,37.7,34.9,35.8z"></path>
  <path fill="#54c4f0" d="M19.8,5h31.3c0.2,1,1.2,2,2.4,2C54.9,7,56,5.9,56,4.5C56,3.1,54.9,2,53.5,2c-1.2,0-2.2,1-2.4,2H13V2H8v5h2v38H8v5h5v-2h38v2h5v-5h-2.1C52.8,25.3,38.5,9,19.8,5z M13,47v-2h-2V7h2V5.1C34.4,6.3,51.7,23.6,52.9,45H51v2H13z"></path>
  <path fill="#ffffff" d="M55,49h-3v-3h3V49z M12,46H9v3h3V46z"></path>
  <path fill="#898989" d="M34.41,19.418C34.774,19.056,35,18.554,35,18c0-1.105-0.895-2-2-2v0.833v20.35c1.163,0.413,2,1.512,2,2.816c0,1.657-1.343,3-3,3s-3-1.343-3-3c0-1.304,0.837-2.403,2-2.816v-20.35V16c-1.105,0-2,0.895-2,2c0,0.554,0.226,1.056,0.59,1.418L20,37v0.02c3.637,2.737,6,7.077,6,11.98v9h12v-9c0-4.903,2.363-9.243,6-11.98V37L34.41,19.418z"></path>
  <path fill="#f6e29a" d="M38,58H26v-3h12V58z"></path>
  <path fill="#b5b5b5" d="M38,58l2,6H24l2-6H38z"></path>
</svg>