<svg xmlns="http://www.w3.org/2000/svg" x="0" y="0" viewBox="0 0 160 280"><path style="fill:#c40000;" d="M130,210v70H30v-70H0c0-33.137,35.817-60,80-60s80,26.863,80,60H130z"/><path style="fill:#ffffff;" d="M50.1,154.348C59.34,151.553,69.426,150,80,150s20.66,1.553,29.9,4.348C108.701,169.818,95.777,182,80,182S51.299,169.818,50.1,154.348z"/><path style="fill:#eecda5;" d="M103.981,152.746C103.586,165.655,93.005,176,80,176s-23.586-10.345-23.981-23.254c2.235-0.526,4.517-0.971,6.831-1.351c1.75-0.412,3.15-2.356,3.15-4.466V138h28v8.928c0,2.111,1.4,4.055,3.15,4.466C99.464,151.775,101.746,152.22,103.981,152.746z"/><path style="fill:#f7e4c9;" d="M131.258,104.936C123.272,125.453,103.341,140,80,140s-43.272-14.547-51.258-35.064C18.285,104.284,10,95.621,10,85c0-9.316,6.379-17.121,15-19.344V60C25,29.624,49.624,5,80,5s55,24.624,55,55v5.656c8.621,2.223,15,10.029,15,19.344C150,95.621,141.715,104.284,131.258,104.936z"/><path style="fill:#333333;" d="M24.962,65.665c-1.58,0.411-3.083,1.013-4.487,1.774C20.174,65,20,62.521,20,60C20,26.863,46.863,0,80,0s60,26.863,60,60c0,2.521-0.174,5-0.476,7.439c-1.404-0.761-2.906-1.363-4.487-1.774l0.009-0.018c-10.983-2.864-13.696-3.764-22.961-21.973l-0.002,0.003C106.131,32.002,94.004,24,80,24s-26.131,8.002-32.084,19.677l-0.002-0.003c-9.265,18.209-11.978,19.109-22.961,21.973L24.962,65.665z"/><path style="fill:#eecda5;" d="M26.696,98.592C20.562,97.105,16,91.592,16,85c0-5.968,3.741-11.05,9-13.064V85C25,89.691,25.591,94.244,26.696,98.592z"/><path style="fill:#eecda5;" d="M144,85c0,6.592-4.562,12.105-10.696,13.592C134.409,94.244,135,89.691,135,85V71.936C140.259,73.95,144,79.032,144,85z"/><path style="fill:#f39797;" d="M80,124c-8.826,0-11.723-5.591-11.842-5.829c-0.37-0.741-0.07-1.642,0.671-2.013c0.741-0.37,1.641-0.07,2.013,0.671C70.925,116.987,73.111,121,80,121c6.992,0,9.138-4.129,9.158-4.171c0.37-0.741,1.271-1.039,2.013-0.671c0.741,0.371,1.041,1.271,0.671,2.013C91.723,118.409,88.825,124,80,124z"/><path style="fill:#fdf8f1;" d="M34,59h31c3.866,0,7,3.134,7,7v10c0,3.866-3.134,7-7,7H41c-3.866,0-7-3.134-7-7V59z"/><path style="fill:#fdf8f1;" d="M126,76c0,3.866-3.134,7-7,7H95c-3.866,0-7-3.134-7-7V66c0-3.866,3.134-7,7-7h31V76z"/><path style="fill:#333333;" d="M59,71c0,3.314-2.686,6-6,6s-6-2.686-6-6s2.686-6,6-6S59,67.686,59,71z"/><path style="fill:#333333;" d="M113,71c0,3.314-2.686,6-6,6s-6-2.686-6-6s2.686-6,6-6S113,67.686,113,71z"/><path style="fill:#3a62ac;" d="M129,62v-6H95c-4.091,0-7.612,2.473-9.159,6H74.159c-1.547-3.527-5.068-6-9.159-6H31v6H20v6h11v8c0,5.514,4.486,10,10,10h24c5.514,0,10-4.486,10-10v-8h10v8c0,5.514,4.486,10,10,10h24c5.514,0,10-4.486,10-10v-8h11v-6H129z M69,76c0,2.206-1.794,4-4,4H41c-2.206,0-4-1.794-4-4V62h28c2.206,0,4,1.794,4,4V76z M123,76c0,2.206-1.794,4-4,4H95c-2.206,0-4-1.794-4-4V66c0-2.206,1.794-4,4-4h28V76z"/><path style="fill:#ffffff;" d="M100,201v2l-2,2H62l-2-2v-2h4l1-6h30l1,6H100z"/><path style="fill:#eeeeee;" d="M100,203H60v-1h40V203z"/><path style="fill:#eeeeee;" d="M62,205h36l-7,50H69L62,205z"/> <path style="fill:#c7b299;" d="M93.52,237H66.48l-2.8-20h32.64L93.52,237z"/><path style="fill:#009245;" d="M96.003,219.263l-2.202,15.727C89.476,234.884,86,231.351,86,227c0-4.418,3.582-8,8-8C94.693,219,95.362,219.097,96.003,219.263z"/><path style="fill:#eecda5;" d="M73.433,243.403l-50,34c-2.582,1.756-5.517,2.598-8.421,2.598c-4.8,0-9.515-2.298-12.417-6.567c-1.759-2.586-2.597-5.434-2.595-8.434h0V210h30v26.659l26.565-18.064c6.849-4.659,16.179-2.882,20.838,3.97C82.061,229.415,80.284,238.744,73.433,243.403z"/><path style="fill:#ffffff;" d="M30,216H0v-6h30V216z"/><path style="fill:#eecda5;" d="M160,280h-30v-70h30V280z"/><path style="fill:#ffffff;" d="M160,216h-30v-6h30V216z"/></svg>