<svg xmlns="http://www.w3.org/2000/svg" width="64" height="64" x="0" y="0" viewBox="0 0 64 64">
  <path fill="#898989" d="M0,42V3c0-1.65,1.35-3,3-3h54c1.65,0,3,1.35,3,3v39H0z"></path>
  <path fill="#eeeeee" d="M57,9H3V3h54V9z"></path>
  <path fill="#ef5080" d="M8.5,6c0,0.828-0.672,1.5-1.5,1.5S5.5,6.828,5.5,6S6.172,4.5,7,4.5S8.5,5.172,8.5,6z"></path>
  <path fill="#f7931e" d="M13.5,6c0,0.828-0.672,1.5-1.5,1.5S10.5,6.828,10.5,6s0.672-1.5,1.5-1.5S13.5,5.172,13.5,6z"></path>
  <path fill="#3cce4a" d="M18.5,6c0,0.828-0.672,1.5-1.5,1.5S15.5,6.828,15.5,6s0.672-1.5,1.5-1.5S18.5,5.172,18.5,6z"></path>
  <path fill="#f69aae" d="M57,13H3V9h54V13z"></path>
  <path fill="#9af6e2" d="M30,21H3v-8h27V21z"></path>
  <path fill="#9adcf6" d="M57,21H30v-8h27V21z"></path>
  <path fill="#ffffff" d="M57,39H3V21h54V39z"></path>
  <path fill="#eeeeee" d="M21,37H5V23h16V37z"></path>
  <path fill="#b5b5b5" d="M20,34h-7.75H10H6l3.125-5l2,3.2L15,26L20,34z M11.125,26c-0.828,0-1.5,0.672-1.5,1.5s0.672,1.5,1.5,1.5s1.5-0.672,1.5-1.5S11.953,26,11.125,26z"></path>
  <path fill="#eeeeee" d="M55,37H23v-2h32V37z M55,31H23v2h32V31z M55,23H23v2h32V23z M55,27H23v2h32V27z"></path>
  <path fill="#cccccc" d="M60,42v5c0,1.65-1.35,3-3,3H3c-1.65,0-3-1.35-3-3l0-5H60z"></path>
  <path fill="#898989" d="M32,46c0,1.105-0.895,2-2,2s-2-0.895-2-2s0.895-2,2-2S32,44.895,32,46z"></path>
  <path fill="#b5b5b5" d="M42,59v1H18v-1h2c1.657,0,3-1.343,3-3v-6h14v6c0,1.657,1.343,3,3,3H42z"></path>
  <path fill="#eeeeee" d="M63,33H47v-4h16V33z"></path>
  <path fill="#f69aae" d="M63,35H47v-2h16V35z"></path>
  <path fill="#9af6e2" d="M63,42H47v-7h16V42z"></path>
  <path fill="#9adcf6" d="M63,49H47v-7h16V49z"></path>
  <path fill="#eeeeee" d="M63,63H47V49h16V63z"></path>
  <path fill="#b5b5b5" d="M62,60h-7.75H52h-4l3.125-5l2,3.2L57,52L62,60z M53.125,52c-0.828,0-1.5,0.672-1.5,1.5s0.672,1.5,1.5,1.5s1.5-0.672,1.5-1.5S53.953,52,53.125,52z"></path>
  <path fill="#898989" d="M62,28H48c-1.1,0-2,0.9-2,2v32c0,1.1,0.9,2,2,2h14c1.1,0,2-0.9,2-2V30C64,28.9,63.1,28,62,28z M63,62c0,0.551-0.449,1-1,1H48c-0.551,0-1-0.449-1-1V30c0-0.551,0.449-1,1-1h1c0.552,0,1,0.448,1,1c0,0.55,0.45,1,1,1h8c0.55,0,1-0.45,1-1c0-0.552,0.448-1,1-1h1c0.551,0,1,0.449,1,1V62z"></path>
</svg>