<svg xmlns="http://www.w3.org/2000/svg" x="0" y="0" viewBox="0 0 560 280" fill="#ffffff"><circle cx="2.5" cy="77.5" r="1.5"/><circle cx="7.5" cy="77.5" r="1.5"/><circle cx="17.5" cy="47.5" r="1.5"/><circle cx="17.5" cy="62.5" r="1.5"/><circle cx="17.5" cy="77.5" r="1.5"/><circle cx="22.5" cy="47.5" r="1.5"/><circle cx="22.5" cy="57.5" r="1.5"/><circle cx="22.5" cy="62.5" r="1.5"/><circle cx="22.5" cy="72.5" r="1.5"/><circle cx="27.5" cy="42.5" r="1.5"/><circle cx="27.5" cy="47.5" r="1.5"/><circle cx="27.5" cy="52.5" r="1.5"/><circle cx="27.5" cy="57.5" r="1.5"/><circle cx="27.5" cy="62.5" r="1.5"/><circle cx="27.5" cy="67.5" r="1.5"/><circle cx="27.5" cy="72.5" r="1.5"/><circle cx="32.5" cy="37.5" r="1.5"/><circle cx="32.5" cy="42.5" r="1.5"/><circle cx="32.5" cy="47.5" r="1.5"/><circle cx="32.5" cy="52.5" r="1.5"/><circle cx="32.5" cy="57.5" r="1.5"/><circle cx="32.5" cy="62.5" r="1.5"/><circle cx="32.5" cy="67.5" r="1.5"/><circle cx="32.5" cy="72.5" r="1.5"/><circle cx="37.5" cy="32.5" r="1.5"/><circle cx="37.5" cy="37.5" r="1.5"/><circle cx="37.5" cy="42.5" r="1.5"/><circle cx="37.5" cy="47.5" r="1.5"/><circle cx="37.5" cy="52.5" r="1.5"/><circle cx="37.5" cy="57.5" r="1.5"/><circle cx="37.5" cy="62.5" r="1.5"/><circle cx="37.5" cy="67.5" r="1.5"/><circle cx="42.5" cy="32.5" r="1.5"/><circle cx="42.5" cy="37.5" r="1.5"/><circle cx="42.5" cy="42.5" r="1.5"/><circle cx="42.5" cy="47.5" r="1.5"/><circle cx="42.5" cy="52.5" r="1.5"/><circle cx="42.5" cy="57.5" r="1.5"/><circle cx="42.5" cy="62.5" r="1.5"/><circle cx="42.5" cy="67.5" r="1.5"/><circle cx="47.5" cy="27.5" r="1.5"/><circle cx="47.5" cy="32.5" r="1.5"/><circle cx="47.5" cy="37.5" r="1.5"/><circle cx="47.5" cy="42.5" r="1.5"/><circle cx="47.5" cy="47.5" r="1.5"/><circle cx="47.5" cy="52.5" r="1.5"/><circle cx="47.5" cy="57.5" r="1.5"/><circle cx="47.5" cy="62.5" r="1.5"/><circle cx="52.5" cy="27.5" r="1.5"/><circle cx="52.5" cy="32.5" r="1.5"/><circle cx="52.5" cy="37.5" r="1.5"/><circle cx="52.5" cy="42.5" r="1.5"/><circle cx="52.5" cy="47.5" r="1.5"/><circle cx="52.5" cy="52.5" r="1.5"/><circle cx="52.5" cy="57.5" r="1.5"/><circle cx="52.5" cy="62.5" r="1.5"/><circle cx="52.5" cy="67.5" r="1.5"/><circle cx="57.5" cy="27.5" r="1.5"/><circle cx="57.5" cy="32.5" r="1.5"/><circle cx="57.5" cy="37.5" r="1.5"/><circle cx="57.5" cy="42.5" r="1.5"/><circle cx="57.5" cy="47.5" r="1.5"/><circle cx="57.5" cy="52.5" r="1.5"/><circle cx="57.5" cy="57.5" r="1.5"/><circle cx="57.5" cy="62.5" r="1.5"/><circle cx="57.5" cy="67.5" r="1.5"/><circle cx="57.5" cy="72.5" r="1.5"/><circle cx="57.5" cy="87.5" r="1.5"/><circle cx="62.5" cy="27.5" r="1.5"/><circle cx="62.5" cy="32.5" r="1.5"/><circle cx="62.5" cy="37.5" r="1.5"/><circle cx="62.5" cy="42.5" r="1.5"/><circle cx="62.5" cy="47.5" r="1.5"/><circle cx="62.5" cy="52.5" r="1.5"/><circle cx="62.5" cy="57.5" r="1.5"/><circle cx="62.5" cy="62.5" r="1.5"/><circle cx="62.5" cy="67.5" r="1.5"/><circle cx="62.5" cy="72.5" r="1.5"/><circle cx="62.5" cy="77.5" r="1.5"/><circle cx="62.5" cy="82.5" r="1.5"/><circle cx="62.5" cy="87.5" r="1.5"/><circle cx="62.5" cy="92.5" r="1.5"/><circle cx="62.5" cy="112.5" r="1.5"/><circle cx="62.5" cy="117.5" r="1.5"/><circle cx="62.5" cy="122.5" r="1.5"/><circle cx="67.5" cy="32.5" r="1.5"/><circle cx="67.5" cy="37.5" r="1.5"/><circle cx="67.5" cy="42.5" r="1.5"/><circle cx="67.5" cy="47.5" r="1.5"/><circle cx="67.5" cy="52.5" r="1.5"/><circle cx="67.5" cy="57.5" r="1.5"/><circle cx="67.5" cy="62.5" r="1.5"/><circle cx="67.5" cy="67.5" r="1.5"/><circle cx="67.5" cy="72.5" r="1.5"/><circle cx="67.5" cy="77.5" r="1.5"/><circle cx="67.5" cy="82.5" r="1.5"/><circle cx="67.5" cy="87.5" r="1.5"/><circle cx="67.5" cy="92.5" r="1.5"/><circle cx="67.5" cy="97.5" r="1.5"/><circle cx="67.5" cy="102.5" r="1.5"/><circle cx="67.5" cy="107.5" r="1.5"/><circle cx="67.5" cy="112.5" r="1.5"/><circle cx="67.5" cy="117.5" r="1.5"/><circle cx="67.5" cy="122.5" r="1.5"/><circle cx="67.5" cy="127.5" r="1.5"/><circle cx="72.5" cy="37.5" r="1.5"/><circle cx="72.5" cy="42.5" r="1.5"/><circle cx="72.5" cy="47.5" r="1.5"/><circle cx="72.5" cy="52.5" r="1.5"/><circle cx="72.5" cy="57.5" r="1.5"/><circle cx="72.5" cy="62.5" r="1.5"/><circle cx="72.5" cy="67.5" r="1.5"/><circle cx="72.5" cy="72.5" r="1.5"/><circle cx="72.5" cy="77.5" r="1.5"/><circle cx="72.5" cy="82.5" r="1.5"/><circle cx="72.5" cy="87.5" r="1.5"/><circle cx="72.5" cy="92.5" r="1.5"/><circle cx="72.5" cy="97.5" r="1.5"/><circle cx="72.5" cy="102.5" r="1.5"/><circle cx="72.5" cy="107.5" r="1.5"/><circle cx="72.5" cy="112.5" r="1.5"/><circle cx="72.5" cy="117.5" r="1.5"/><circle cx="72.5" cy="122.5" r="1.5"/><circle cx="72.5" cy="127.5" r="1.5"/><circle cx="72.5" cy="132.5" r="1.5"/><circle cx="72.5" cy="137.5" r="1.5"/><circle cx="72.5" cy="142.5" r="1.5"/><circle cx="77.5" cy="37.5" r="1.5"/><circle cx="77.5" cy="42.5" r="1.5"/><circle cx="77.5" cy="47.5" r="1.5"/><circle cx="77.5" cy="52.5" r="1.5"/><circle cx="77.5" cy="57.5" r="1.5"/><circle cx="77.5" cy="62.5" r="1.5"/><circle cx="77.5" cy="67.5" r="1.5"/><circle cx="77.5" cy="72.5" r="1.5"/><circle cx="77.5" cy="77.5" r="1.5"/><circle cx="77.5" cy="82.5" r="1.5"/><circle cx="77.5" cy="87.5" r="1.5"/><circle cx="77.5" cy="92.5" r="1.5"/><circle cx="77.5" cy="97.5" r="1.5"/><circle cx="77.5" cy="102.5" r="1.5"/><circle cx="77.5" cy="107.5" r="1.5"/><circle cx="77.5" cy="112.5" r="1.5"/><circle cx="77.5" cy="117.5" r="1.5"/><circle cx="77.5" cy="122.5" r="1.5"/><circle cx="77.5" cy="127.5" r="1.5"/><circle cx="77.5" cy="132.5" r="1.5"/><circle cx="77.5" cy="137.5" r="1.5"/><circle cx="77.5" cy="142.5" r="1.5"/><circle cx="77.5" cy="147.5" r="1.5"/><circle cx="82.5" cy="42.5" r="1.5"/><circle cx="82.5" cy="47.5" r="1.5"/><circle cx="82.5" cy="52.5" r="1.5"/><circle cx="82.5" cy="57.5" r="1.5"/><circle cx="82.5" cy="62.5" r="1.5"/><circle cx="82.5" cy="67.5" r="1.5"/><circle cx="82.5" cy="72.5" r="1.5"/><circle cx="82.5" cy="77.5" r="1.5"/><circle cx="82.5" cy="82.5" r="1.5"/><circle cx="82.5" cy="87.5" r="1.5"/><circle cx="82.5" cy="92.5" r="1.5"/><circle cx="82.5" cy="97.5" r="1.5"/><circle cx="82.5" cy="102.5" r="1.5"/><circle cx="82.5" cy="107.5" r="1.5"/><circle cx="82.5" cy="112.5" r="1.5"/><circle cx="82.5" cy="117.5" r="1.5"/><circle cx="82.5" cy="122.5" r="1.5"/><circle cx="82.5" cy="127.5" r="1.5"/><circle cx="82.5" cy="132.5" r="1.5"/><circle cx="82.5" cy="137.5" r="1.5"/><circle cx="82.5" cy="142.5" r="1.5"/><circle cx="82.5" cy="147.5" r="1.5"/><circle cx="82.5" cy="152.5" r="1.5"/><circle cx="87.5" cy="42.5" r="1.5"/><circle cx="87.5" cy="47.5" r="1.5"/><circle cx="87.5" cy="52.5" r="1.5"/><circle cx="87.5" cy="57.5" r="1.5"/><circle cx="87.5" cy="62.5" r="1.5"/><circle cx="87.5" cy="67.5" r="1.5"/><circle cx="87.5" cy="72.5" r="1.5"/><circle cx="87.5" cy="77.5" r="1.5"/><circle cx="87.5" cy="82.5" r="1.5"/><circle cx="87.5" cy="87.5" r="1.5"/><circle cx="87.5" cy="92.5" r="1.5"/><circle cx="87.5" cy="97.5" r="1.5"/><circle cx="87.5" cy="102.5" r="1.5"/><circle cx="87.5" cy="107.5" r="1.5"/><circle cx="87.5" cy="112.5" r="1.5"/><circle cx="87.5" cy="117.5" r="1.5"/><circle cx="87.5" cy="122.5" r="1.5"/><circle cx="87.5" cy="127.5" r="1.5"/><circle cx="87.5" cy="132.5" r="1.5"/><circle cx="87.5" cy="137.5" r="1.5"/><circle cx="87.5" cy="142.5" r="1.5"/><circle cx="87.5" cy="147.5" r="1.5"/><circle cx="87.5" cy="152.5" r="1.5"/><circle cx="87.5" cy="157.5" r="1.5"/><circle cx="92.5" cy="42.5" r="1.5"/><circle cx="92.5" cy="47.5" r="1.5"/><circle cx="92.5" cy="52.5" r="1.5"/><circle cx="92.5" cy="57.5" r="1.5"/><circle cx="92.5" cy="62.5" r="1.5"/><circle cx="92.5" cy="67.5" r="1.5"/><circle cx="92.5" cy="72.5" r="1.5"/><circle cx="92.5" cy="77.5" r="1.5"/><circle cx="92.5" cy="82.5" r="1.5"/><circle cx="92.5" cy="87.5" r="1.5"/><circle cx="92.5" cy="92.5" r="1.5"/><circle cx="92.5" cy="97.5" r="1.5"/><circle cx="92.5" cy="102.5" r="1.5"/><circle cx="92.5" cy="107.5" r="1.5"/><circle cx="92.5" cy="112.5" r="1.5"/><circle cx="92.5" cy="117.5" r="1.5"/><circle cx="92.5" cy="122.5" r="1.5"/><circle cx="92.5" cy="127.5" r="1.5"/><circle cx="92.5" cy="132.5" r="1.5"/><circle cx="92.5" cy="137.5" r="1.5"/><circle cx="92.5" cy="142.5" r="1.5"/><circle cx="92.5" cy="147.5" r="1.5"/><circle cx="92.5" cy="152.5" r="1.5"/><circle cx="92.5" cy="157.5" r="1.5"/><circle cx="97.5" cy="42.5" r="1.5"/><circle cx="97.5" cy="47.5" r="1.5"/><circle cx="97.5" cy="52.5" r="1.5"/><circle cx="97.5" cy="57.5" r="1.5"/><circle cx="97.5" cy="62.5" r="1.5"/><circle cx="97.5" cy="67.5" r="1.5"/><circle cx="97.5" cy="72.5" r="1.5"/><circle cx="97.5" cy="77.5" r="1.5"/><circle cx="97.5" cy="82.5" r="1.5"/><circle cx="97.5" cy="87.5" r="1.5"/><circle cx="97.5" cy="92.5" r="1.5"/><circle cx="97.5" cy="97.5" r="1.5"/><circle cx="97.5" cy="102.5" r="1.5"/><circle cx="97.5" cy="107.5" r="1.5"/><circle cx="97.5" cy="112.5" r="1.5"/><circle cx="97.5" cy="117.5" r="1.5"/><circle cx="97.5" cy="122.5" r="1.5"/><circle cx="97.5" cy="127.5" r="1.5"/><circle cx="97.5" cy="132.5" r="1.5"/><circle cx="97.5" cy="137.5" r="1.5"/><circle cx="97.5" cy="142.5" r="1.5"/><circle cx="97.5" cy="147.5" r="1.5"/><circle cx="97.5" cy="152.5" r="1.5"/><circle cx="97.5" cy="157.5" r="1.5"/><circle cx="97.5" cy="162.5" r="1.5"/><circle cx="102.5" cy="37.5" r="1.5"/><circle cx="102.5" cy="47.5" r="1.5"/><circle cx="102.5" cy="52.5" r="1.5"/><circle cx="102.5" cy="57.5" r="1.5"/><circle cx="102.5" cy="62.5" r="1.5"/><circle cx="102.5" cy="67.5" r="1.5"/><circle cx="102.5" cy="72.5" r="1.5"/><circle cx="102.5" cy="77.5" r="1.5"/><circle cx="102.5" cy="82.5" r="1.5"/><circle cx="102.5" cy="87.5" r="1.5"/><circle cx="102.5" cy="92.5" r="1.5"/><circle cx="102.5" cy="97.5" r="1.5"/><circle cx="102.5" cy="102.5" r="1.5"/><circle cx="102.5" cy="107.5" r="1.5"/><circle cx="102.5" cy="112.5" r="1.5"/><circle cx="102.5" cy="117.5" r="1.5"/><circle cx="102.5" cy="122.5" r="1.5"/><circle cx="102.5" cy="127.5" r="1.5"/><circle cx="102.5" cy="132.5" r="1.5"/><circle cx="102.5" cy="137.5" r="1.5"/><circle cx="102.5" cy="142.5" r="1.5"/><circle cx="102.5" cy="147.5" r="1.5"/><circle cx="102.5" cy="152.5" r="1.5"/><circle cx="102.5" cy="157.5" r="1.5"/><circle cx="102.5" cy="162.5" r="1.5"/><circle cx="107.5" cy="32.5" r="1.5"/><circle cx="107.5" cy="37.5" r="1.5"/><circle cx="107.5" cy="52.5" r="1.5"/><circle cx="107.5" cy="57.5" r="1.5"/><circle cx="107.5" cy="62.5" r="1.5"/><circle cx="107.5" cy="67.5" r="1.5"/><circle cx="107.5" cy="72.5" r="1.5"/><circle cx="107.5" cy="77.5" r="1.5"/><circle cx="107.5" cy="82.5" r="1.5"/><circle cx="107.5" cy="87.5" r="1.5"/><circle cx="107.5" cy="92.5" r="1.5"/><circle cx="107.5" cy="97.5" r="1.5"/><circle cx="107.5" cy="102.5" r="1.5"/><circle cx="107.5" cy="107.5" r="1.5"/><circle cx="107.5" cy="112.5" r="1.5"/><circle cx="107.5" cy="117.5" r="1.5"/><circle cx="107.5" cy="122.5" r="1.5"/><circle cx="107.5" cy="127.5" r="1.5"/><circle cx="107.5" cy="132.5" r="1.5"/><circle cx="107.5" cy="137.5" r="1.5"/><circle cx="107.5" cy="157.5" r="1.5"/><circle cx="107.5" cy="162.5" r="1.5"/><circle cx="112.5" cy="27.5" r="1.5"/><circle cx="112.5" cy="32.5" r="1.5"/><circle cx="112.5" cy="37.5" r="1.5"/><circle cx="112.5" cy="42.5" r="1.5"/><circle cx="112.5" cy="47.5" r="1.5"/><circle cx="112.5" cy="52.5" r="1.5"/><circle cx="112.5" cy="57.5" r="1.5"/><circle cx="112.5" cy="62.5" r="1.5"/><circle cx="112.5" cy="67.5" r="1.5"/><circle cx="112.5" cy="72.5" r="1.5"/><circle cx="112.5" cy="77.5" r="1.5"/><circle cx="112.5" cy="82.5" r="1.5"/><circle cx="112.5" cy="87.5" r="1.5"/><circle cx="112.5" cy="92.5" r="1.5"/><circle cx="112.5" cy="97.5" r="1.5"/><circle cx="112.5" cy="102.5" r="1.5"/><circle cx="112.5" cy="107.5" r="1.5"/><circle cx="112.5" cy="112.5" r="1.5"/><circle cx="112.5" cy="117.5" r="1.5"/><circle cx="112.5" cy="122.5" r="1.5"/><circle cx="112.5" cy="127.5" r="1.5"/><circle cx="112.5" cy="132.5" r="1.5"/><circle cx="112.5" cy="137.5" r="1.5"/><circle cx="112.5" cy="157.5" r="1.5"/><circle cx="112.5" cy="162.5" r="1.5"/><circle cx="117.5" cy="22.5" r="1.5"/><circle cx="117.5" cy="32.5" r="1.5"/><circle cx="117.5" cy="37.5" r="1.5"/><circle cx="117.5" cy="42.5" r="1.5"/><circle cx="117.5" cy="47.5" r="1.5"/><circle cx="117.5" cy="52.5" r="1.5"/><circle cx="117.5" cy="57.5" r="1.5"/><circle cx="117.5" cy="62.5" r="1.5"/><circle cx="117.5" cy="67.5" r="1.5"/><circle cx="117.5" cy="72.5" r="1.5"/><circle cx="117.5" cy="77.5" r="1.5"/><circle cx="117.5" cy="82.5" r="1.5"/><circle cx="117.5" cy="87.5" r="1.5"/><circle cx="117.5" cy="92.5" r="1.5"/><circle cx="117.5" cy="97.5" r="1.5"/><circle cx="117.5" cy="102.5" r="1.5"/><circle cx="117.5" cy="107.5" r="1.5"/><circle cx="117.5" cy="112.5" r="1.5"/><circle cx="117.5" cy="117.5" r="1.5"/><circle cx="117.5" cy="122.5" r="1.5"/><circle cx="117.5" cy="127.5" r="1.5"/><circle cx="117.5" cy="132.5" r="1.5"/><circle cx="117.5" cy="137.5" r="1.5"/><circle cx="117.5" cy="142.5" r="1.5"/><circle cx="117.5" cy="152.5" r="1.5"/><circle cx="117.5" cy="157.5" r="1.5"/><circle cx="117.5" cy="162.5" r="1.5"/><circle cx="117.5" cy="167.5" r="1.5"/><circle cx="122.5" cy="17.5" r="1.5"/><circle cx="122.5" cy="22.5" r="1.5"/><circle cx="122.5" cy="27.5" r="1.5"/><circle cx="122.5" cy="37.5" r="1.5"/><circle cx="122.5" cy="42.5" r="1.5"/><circle cx="122.5" cy="47.5" r="1.5"/><circle cx="122.5" cy="52.5" r="1.5"/><circle cx="122.5" cy="57.5" r="1.5"/><circle cx="122.5" cy="62.5" r="1.5"/><circle cx="122.5" cy="67.5" r="1.5"/><circle cx="122.5" cy="72.5" r="1.5"/><circle cx="122.5" cy="77.5" r="1.5"/><circle cx="122.5" cy="82.5" r="1.5"/><circle cx="122.5" cy="87.5" r="1.5"/><circle cx="122.5" cy="92.5" r="1.5"/><circle cx="122.5" cy="97.5" r="1.5"/><circle cx="122.5" cy="102.5" r="1.5"/><circle cx="122.5" cy="107.5" r="1.5"/><circle cx="122.5" cy="112.5" r="1.5"/><circle cx="122.5" cy="117.5" r="1.5"/><circle cx="122.5" cy="122.5" r="1.5"/><circle cx="122.5" cy="127.5" r="1.5"/><circle cx="122.5" cy="132.5" r="1.5"/><circle cx="122.5" cy="137.5" r="1.5"/><circle cx="122.5" cy="152.5" r="1.5"/><circle cx="122.5" cy="162.5" r="1.5"/><circle cx="122.5" cy="167.5" r="1.5"/><circle cx="122.5" cy="172.5" r="1.5"/><circle cx="127.5" cy="17.5" r="1.5"/><circle cx="127.5" cy="22.5" r="1.5"/><circle cx="127.5" cy="27.5" r="1.5"/><circle cx="127.5" cy="32.5" r="1.5"/><circle cx="127.5" cy="37.5" r="1.5"/><circle cx="127.5" cy="42.5" r="1.5"/><circle cx="127.5" cy="52.5" r="1.5"/><circle cx="127.5" cy="57.5" r="1.5"/><circle cx="127.5" cy="62.5" r="1.5"/><circle cx="127.5" cy="67.5" r="1.5"/><circle cx="127.5" cy="72.5" r="1.5"/><circle cx="127.5" cy="87.5" r="1.5"/><circle cx="127.5" cy="92.5" r="1.5"/><circle cx="127.5" cy="97.5" r="1.5"/><circle cx="127.5" cy="102.5" r="1.5"/><circle cx="127.5" cy="107.5" r="1.5"/><circle cx="127.5" cy="112.5" r="1.5"/><circle cx="127.5" cy="117.5" r="1.5"/><circle cx="127.5" cy="122.5" r="1.5"/><circle cx="127.5" cy="127.5" r="1.5"/><circle cx="127.5" cy="132.5" r="1.5"/><circle cx="127.5" cy="137.5" r="1.5"/><circle cx="127.5" cy="142.5" r="1.5"/><circle cx="127.5" cy="147.5" r="1.5"/><circle cx="127.5" cy="152.5" r="1.5"/><circle cx="127.5" cy="172.5" r="1.5"/><circle cx="127.5" cy="182.5" r="1.5"/><circle cx="127.5" cy="187.5" r="1.5"/><circle cx="127.5" cy="192.5" r="1.5"/><circle cx="132.5" cy="17.5" r="1.5"/><circle cx="132.5" cy="22.5" r="1.5"/><circle cx="132.5" cy="27.5" r="1.5"/><circle cx="132.5" cy="32.5" r="1.5"/><circle cx="132.5" cy="37.5" r="1.5"/><circle cx="132.5" cy="52.5" r="1.5"/><circle cx="132.5" cy="57.5" r="1.5"/><circle cx="132.5" cy="62.5" r="1.5"/><circle cx="132.5" cy="67.5" r="1.5"/><circle cx="132.5" cy="92.5" r="1.5"/><circle cx="132.5" cy="97.5" r="1.5"/><circle cx="132.5" cy="102.5" r="1.5"/><circle cx="132.5" cy="107.5" r="1.5"/><circle cx="132.5" cy="112.5" r="1.5"/><circle cx="132.5" cy="117.5" r="1.5"/><circle cx="132.5" cy="122.5" r="1.5"/><circle cx="132.5" cy="127.5" r="1.5"/><circle cx="132.5" cy="132.5" r="1.5"/><circle cx="132.5" cy="137.5" r="1.5"/><circle cx="132.5" cy="142.5" r="1.5"/><circle cx="132.5" cy="147.5" r="1.5"/><circle cx="132.5" cy="152.5" r="1.5"/><circle cx="132.5" cy="157.5" r="1.5"/><circle cx="132.5" cy="172.5" r="1.5"/><circle cx="132.5" cy="177.5" r="1.5"/><circle cx="132.5" cy="182.5" r="1.5"/><circle cx="132.5" cy="187.5" r="1.5"/><circle cx="132.5" cy="192.5" r="1.5"/><circle cx="132.5" cy="197.5" r="1.5"/><circle cx="132.5" cy="202.5" r="1.5"/><circle cx="137.5" cy="12.5" r="1.5"/><circle cx="137.5" cy="22.5" r="1.5"/><circle cx="137.5" cy="27.5" r="1.5"/><circle cx="137.5" cy="37.5" r="1.5"/><circle cx="137.5" cy="42.5" r="1.5"/><circle cx="137.5" cy="47.5" r="1.5"/><circle cx="137.5" cy="52.5" r="1.5"/><circle cx="137.5" cy="57.5" r="1.5"/><circle cx="137.5" cy="62.5" r="1.5"/><circle cx="137.5" cy="67.5" r="1.5"/><circle cx="137.5" cy="92.5" r="1.5"/><circle cx="137.5" cy="97.5" r="1.5"/><circle cx="137.5" cy="102.5" r="1.5"/><circle cx="137.5" cy="107.5" r="1.5"/><circle cx="137.5" cy="112.5" r="1.5"/><circle cx="137.5" cy="117.5" r="1.5"/><circle cx="137.5" cy="122.5" r="1.5"/><circle cx="137.5" cy="127.5" r="1.5"/><circle cx="137.5" cy="132.5" r="1.5"/><circle cx="137.5" cy="152.5" r="1.5"/><circle cx="137.5" cy="157.5" r="1.5"/><circle cx="137.5" cy="172.5" r="1.5"/><circle cx="137.5" cy="177.5" r="1.5"/><circle cx="137.5" cy="182.5" r="1.5"/><circle cx="137.5" cy="187.5" r="1.5"/><circle cx="137.5" cy="192.5" r="1.5"/><circle cx="137.5" cy="197.5" r="1.5"/><circle cx="137.5" cy="202.5" r="1.5"/><circle cx="137.5" cy="207.5" r="1.5"/><circle cx="142.5" cy="12.5" r="1.5"/><circle cx="142.5" cy="17.5" r="1.5"/><circle cx="142.5" cy="22.5" r="1.5"/><circle cx="142.5" cy="27.5" r="1.5"/><circle cx="142.5" cy="37.5" r="1.5"/><circle cx="142.5" cy="42.5" r="1.5"/><circle cx="142.5" cy="47.5" r="1.5"/><circle cx="142.5" cy="52.5" r="1.5"/><circle cx="142.5" cy="57.5" r="1.5"/><circle cx="142.5" cy="62.5" r="1.5"/><circle cx="142.5" cy="67.5" r="1.5"/><circle cx="142.5" cy="72.5" r="1.5"/><circle cx="142.5" cy="92.5" r="1.5"/><circle cx="142.5" cy="97.5" r="1.5"/><circle cx="142.5" cy="102.5" r="1.5"/><circle cx="142.5" cy="107.5" r="1.5"/><circle cx="142.5" cy="112.5" r="1.5"/><circle cx="142.5" cy="117.5" r="1.5"/><circle cx="142.5" cy="122.5" r="1.5"/><circle cx="142.5" cy="127.5" r="1.5"/><circle cx="142.5" cy="132.5" r="1.5"/><circle cx="142.5" cy="157.5" r="1.5"/><circle cx="142.5" cy="167.5" r="1.5"/><circle cx="142.5" cy="172.5" r="1.5"/><circle cx="142.5" cy="177.5" r="1.5"/><circle cx="142.5" cy="182.5" r="1.5"/><circle cx="142.5" cy="187.5" r="1.5"/><circle cx="142.5" cy="192.5" r="1.5"/><circle cx="142.5" cy="197.5" r="1.5"/><circle cx="142.5" cy="202.5" r="1.5"/><circle cx="142.5" cy="207.5" r="1.5"/><circle cx="142.5" cy="212.5" r="1.5"/><circle cx="142.5" cy="237.5" r="1.5"/><circle cx="142.5" cy="242.5" r="1.5"/><circle cx="142.5" cy="247.5" r="1.5"/><circle cx="147.5" cy="12.5" r="1.5"/><circle cx="147.5" cy="17.5" r="1.5"/><circle cx="147.5" cy="22.5" r="1.5"/><circle cx="147.5" cy="27.5" r="1.5"/><circle cx="147.5" cy="37.5" r="1.5"/><circle cx="147.5" cy="42.5" r="1.5"/><circle cx="147.5" cy="47.5" r="1.5"/><circle cx="147.5" cy="52.5" r="1.5"/><circle cx="147.5" cy="67.5" r="1.5"/><circle cx="147.5" cy="72.5" r="1.5"/><circle cx="147.5" cy="82.5" r="1.5"/><circle cx="147.5" cy="97.5" r="1.5"/><circle cx="147.5" cy="102.5" r="1.5"/><circle cx="147.5" cy="107.5" r="1.5"/><circle cx="147.5" cy="112.5" r="1.5"/><circle cx="147.5" cy="117.5" r="1.5"/><circle cx="147.5" cy="122.5" r="1.5"/><circle cx="147.5" cy="152.5" r="1.5"/><circle cx="147.5" cy="157.5" r="1.5"/><circle cx="147.5" cy="167.5" r="1.5"/><circle cx="147.5" cy="172.5" r="1.5"/><circle cx="147.5" cy="177.5" r="1.5"/><circle cx="147.5" cy="182.5" r="1.5"/><circle cx="147.5" cy="187.5" r="1.5"/><circle cx="147.5" cy="192.5" r="1.5"/><circle cx="147.5" cy="197.5" r="1.5"/><circle cx="147.5" cy="202.5" r="1.5"/><circle cx="147.5" cy="207.5" r="1.5"/><circle cx="147.5" cy="212.5" r="1.5"/><circle cx="147.5" cy="217.5" r="1.5"/><circle cx="147.5" cy="222.5" r="1.5"/><circle cx="147.5" cy="227.5" r="1.5"/><circle cx="147.5" cy="232.5" r="1.5"/><circle cx="147.5" cy="237.5" r="1.5"/><circle cx="147.5" cy="242.5" r="1.5"/><circle cx="147.5" cy="247.5" r="1.5"/><circle cx="147.5" cy="252.5" r="1.5"/><circle cx="147.5" cy="257.5" r="1.5"/><circle cx="147.5" cy="262.5" r="1.5"/><circle cx="147.5" cy="267.5" r="1.5"/><circle cx="152.5" cy="12.5" r="1.5"/><circle cx="152.5" cy="17.5" r="1.5"/><circle cx="152.5" cy="22.5" r="1.5"/><circle cx="152.5" cy="27.5" r="1.5"/><circle cx="152.5" cy="42.5" r="1.5"/><circle cx="152.5" cy="47.5" r="1.5"/><circle cx="152.5" cy="52.5" r="1.5"/><circle cx="152.5" cy="57.5" r="1.5"/><circle cx="152.5" cy="62.5" r="1.5"/><circle cx="152.5" cy="77.5" r="1.5"/><circle cx="152.5" cy="82.5" r="1.5"/><circle cx="152.5" cy="87.5" r="1.5"/><circle cx="152.5" cy="92.5" r="1.5"/><circle cx="152.5" cy="97.5" r="1.5"/><circle cx="152.5" cy="102.5" r="1.5"/><circle cx="152.5" cy="107.5" r="1.5"/><circle cx="152.5" cy="112.5" r="1.5"/><circle cx="152.5" cy="117.5" r="1.5"/><circle cx="152.5" cy="157.5" r="1.5"/><circle cx="152.5" cy="172.5" r="1.5"/><circle cx="152.5" cy="177.5" r="1.5"/><circle cx="152.5" cy="182.5" r="1.5"/><circle cx="152.5" cy="187.5" r="1.5"/><circle cx="152.5" cy="192.5" r="1.5"/><circle cx="152.5" cy="197.5" r="1.5"/><circle cx="152.5" cy="202.5" r="1.5"/><circle cx="152.5" cy="207.5" r="1.5"/><circle cx="152.5" cy="212.5" r="1.5"/><circle cx="152.5" cy="217.5" r="1.5"/><circle cx="152.5" cy="222.5" r="1.5"/><circle cx="152.5" cy="227.5" r="1.5"/><circle cx="152.5" cy="232.5" r="1.5"/><circle cx="152.5" cy="237.5" r="1.5"/><circle cx="152.5" cy="242.5" r="1.5"/><circle cx="152.5" cy="247.5" r="1.5"/><circle cx="152.5" cy="252.5" r="1.5"/><circle cx="152.5" cy="257.5" r="1.5"/><circle cx="152.5" cy="262.5" r="1.5"/><circle cx="152.5" cy="267.5" r="1.5"/><circle cx="152.5" cy="272.5" r="1.5"/><circle cx="157.5" cy="12.5" r="1.5"/><circle cx="157.5" cy="17.5" r="1.5"/><circle cx="157.5" cy="22.5" r="1.5"/><circle cx="157.5" cy="27.5" r="1.5"/><circle cx="157.5" cy="47.5" r="1.5"/><circle cx="157.5" cy="52.5" r="1.5"/><circle cx="157.5" cy="62.5" r="1.5"/><circle cx="157.5" cy="67.5" r="1.5"/><circle cx="157.5" cy="77.5" r="1.5"/><circle cx="157.5" cy="82.5" r="1.5"/><circle cx="157.5" cy="87.5" r="1.5"/><circle cx="157.5" cy="92.5" r="1.5"/><circle cx="157.5" cy="97.5" r="1.5"/><circle cx="157.5" cy="102.5" r="1.5"/><circle cx="157.5" cy="107.5" r="1.5"/><circle cx="157.5" cy="112.5" r="1.5"/><circle cx="157.5" cy="117.5" r="1.5"/><circle cx="157.5" cy="157.5" r="1.5"/><circle cx="157.5" cy="167.5" r="1.5"/><circle cx="157.5" cy="172.5" r="1.5"/><circle cx="157.5" cy="177.5" r="1.5"/><circle cx="157.5" cy="182.5" r="1.5"/><circle cx="157.5" cy="187.5" r="1.5"/><circle cx="157.5" cy="192.5" r="1.5"/><circle cx="157.5" cy="197.5" r="1.5"/><circle cx="157.5" cy="202.5" r="1.5"/><circle cx="157.5" cy="207.5" r="1.5"/><circle cx="157.5" cy="212.5" r="1.5"/><circle cx="157.5" cy="217.5" r="1.5"/><circle cx="157.5" cy="222.5" r="1.5"/><circle cx="157.5" cy="227.5" r="1.5"/><circle cx="157.5" cy="232.5" r="1.5"/><circle cx="157.5" cy="237.5" r="1.5"/><circle cx="157.5" cy="242.5" r="1.5"/><circle cx="157.5" cy="247.5" r="1.5"/><circle cx="157.5" cy="252.5" r="1.5"/><circle cx="157.5" cy="257.5" r="1.5"/><circle cx="157.5" cy="262.5" r="1.5"/><circle cx="157.5" cy="267.5" r="1.5"/><circle cx="157.5" cy="272.5" r="1.5"/><circle cx="157.5" cy="277.5" r="1.5"/><circle cx="162.5" cy="12.5" r="1.5"/><circle cx="162.5" cy="17.5" r="1.5"/><circle cx="162.5" cy="22.5" r="1.5"/><circle cx="162.5" cy="52.5" r="1.5"/><circle cx="162.5" cy="57.5" r="1.5"/><circle cx="162.5" cy="62.5" r="1.5"/><circle cx="162.5" cy="67.5" r="1.5"/><circle cx="162.5" cy="72.5" r="1.5"/><circle cx="162.5" cy="82.5" r="1.5"/><circle cx="162.5" cy="87.5" r="1.5"/><circle cx="162.5" cy="92.5" r="1.5"/><circle cx="162.5" cy="97.5" r="1.5"/><circle cx="162.5" cy="102.5" r="1.5"/><circle cx="162.5" cy="107.5" r="1.5"/><circle cx="162.5" cy="112.5" r="1.5"/><circle cx="162.5" cy="117.5" r="1.5"/><circle cx="162.5" cy="167.5" r="1.5"/><circle cx="162.5" cy="172.5" r="1.5"/><circle cx="162.5" cy="177.5" r="1.5"/><circle cx="162.5" cy="182.5" r="1.5"/><circle cx="162.5" cy="187.5" r="1.5"/><circle cx="162.5" cy="192.5" r="1.5"/><circle cx="162.5" cy="197.5" r="1.5"/><circle cx="162.5" cy="202.5" r="1.5"/><circle cx="162.5" cy="207.5" r="1.5"/><circle cx="162.5" cy="212.5" r="1.5"/><circle cx="162.5" cy="217.5" r="1.5"/><circle cx="162.5" cy="222.5" r="1.5"/><circle cx="162.5" cy="227.5" r="1.5"/><circle cx="162.5" cy="232.5" r="1.5"/><circle cx="162.5" cy="237.5" r="1.5"/><circle cx="162.5" cy="242.5" r="1.5"/><circle cx="162.5" cy="247.5" r="1.5"/><circle cx="162.5" cy="252.5" r="1.5"/><circle cx="162.5" cy="262.5" r="1.5"/><circle cx="162.5" cy="272.5" r="1.5"/><circle cx="162.5" cy="277.5" r="1.5"/><circle cx="167.5" cy="12.5" r="1.5"/><circle cx="167.5" cy="17.5" r="1.5"/><circle cx="167.5" cy="27.5" r="1.5"/><circle cx="167.5" cy="52.5" r="1.5"/><circle cx="167.5" cy="57.5" r="1.5"/><circle cx="167.5" cy="62.5" r="1.5"/><circle cx="167.5" cy="67.5" r="1.5"/><circle cx="167.5" cy="72.5" r="1.5"/><circle cx="167.5" cy="82.5" r="1.5"/><circle cx="167.5" cy="87.5" r="1.5"/><circle cx="167.5" cy="92.5" r="1.5"/><circle cx="167.5" cy="97.5" r="1.5"/><circle cx="167.5" cy="102.5" r="1.5"/><circle cx="167.5" cy="107.5" r="1.5"/><circle cx="167.5" cy="112.5" r="1.5"/><circle cx="167.5" cy="172.5" r="1.5"/><circle cx="167.5" cy="177.5" r="1.5"/><circle cx="167.5" cy="182.5" r="1.5"/><circle cx="167.5" cy="187.5" r="1.5"/><circle cx="167.5" cy="192.5" r="1.5"/><circle cx="167.5" cy="197.5" r="1.5"/><circle cx="167.5" cy="202.5" r="1.5"/><circle cx="167.5" cy="207.5" r="1.5"/><circle cx="167.5" cy="212.5" r="1.5"/><circle cx="167.5" cy="217.5" r="1.5"/><circle cx="167.5" cy="222.5" r="1.5"/><circle cx="167.5" cy="227.5" r="1.5"/><circle cx="167.5" cy="232.5" r="1.5"/><circle cx="167.5" cy="237.5" r="1.5"/><circle cx="167.5" cy="242.5" r="1.5"/><circle cx="167.5" cy="247.5" r="1.5"/><circle cx="167.5" cy="272.5" r="1.5"/><circle cx="172.5" cy="12.5" r="1.5"/><circle cx="172.5" cy="27.5" r="1.5"/><circle cx="172.5" cy="32.5" r="1.5"/><circle cx="172.5" cy="57.5" r="1.5"/><circle cx="172.5" cy="62.5" r="1.5"/><circle cx="172.5" cy="67.5" r="1.5"/><circle cx="172.5" cy="77.5" r="1.5"/><circle cx="172.5" cy="82.5" r="1.5"/><circle cx="172.5" cy="87.5" r="1.5"/><circle cx="172.5" cy="92.5" r="1.5"/><circle cx="172.5" cy="97.5" r="1.5"/><circle cx="172.5" cy="102.5" r="1.5"/><circle cx="172.5" cy="107.5" r="1.5"/><circle cx="172.5" cy="177.5" r="1.5"/><circle cx="172.5" cy="182.5" r="1.5"/><circle cx="172.5" cy="187.5" r="1.5"/><circle cx="172.5" cy="192.5" r="1.5"/><circle cx="172.5" cy="197.5" r="1.5"/><circle cx="172.5" cy="202.5" r="1.5"/><circle cx="172.5" cy="207.5" r="1.5"/><circle cx="172.5" cy="212.5" r="1.5"/><circle cx="172.5" cy="217.5" r="1.5"/><circle cx="172.5" cy="222.5" r="1.5"/><circle cx="172.5" cy="227.5" r="1.5"/><circle cx="172.5" cy="232.5" r="1.5"/><circle cx="172.5" cy="237.5" r="1.5"/><circle cx="172.5" cy="242.5" r="1.5"/><circle cx="177.5" cy="17.5" r="1.5"/><circle cx="177.5" cy="27.5" r="1.5"/><circle cx="177.5" cy="32.5" r="1.5"/><circle cx="177.5" cy="67.5" r="1.5"/><circle cx="177.5" cy="97.5" r="1.5"/><circle cx="177.5" cy="102.5" r="1.5"/><circle cx="177.5" cy="107.5" r="1.5"/><circle cx="177.5" cy="177.5" r="1.5"/><circle cx="177.5" cy="182.5" r="1.5"/><circle cx="177.5" cy="187.5" r="1.5"/><circle cx="177.5" cy="192.5" r="1.5"/><circle cx="177.5" cy="197.5" r="1.5"/><circle cx="177.5" cy="202.5" r="1.5"/><circle cx="177.5" cy="207.5" r="1.5"/><circle cx="177.5" cy="212.5" r="1.5"/><circle cx="177.5" cy="217.5" r="1.5"/><circle cx="177.5" cy="222.5" r="1.5"/><circle cx="177.5" cy="227.5" r="1.5"/><circle cx="177.5" cy="232.5" r="1.5"/><circle cx="177.5" cy="237.5" r="1.5"/><circle cx="182.5" cy="17.5" r="1.5"/><circle cx="182.5" cy="22.5" r="1.5"/><circle cx="182.5" cy="27.5" r="1.5"/><circle cx="182.5" cy="32.5" r="1.5"/><circle cx="182.5" cy="107.5" r="1.5"/><circle cx="182.5" cy="112.5" r="1.5"/><circle cx="182.5" cy="182.5" r="1.5"/><circle cx="182.5" cy="187.5" r="1.5"/><circle cx="182.5" cy="192.5" r="1.5"/><circle cx="182.5" cy="197.5" r="1.5"/><circle cx="182.5" cy="202.5" r="1.5"/><circle cx="182.5" cy="207.5" r="1.5"/><circle cx="182.5" cy="212.5" r="1.5"/><circle cx="182.5" cy="217.5" r="1.5"/><circle cx="182.5" cy="222.5" r="1.5"/><circle cx="182.5" cy="227.5" r="1.5"/><circle cx="182.5" cy="232.5" r="1.5"/><circle cx="187.5" cy="12.5" r="1.5"/><circle cx="187.5" cy="17.5" r="1.5"/><circle cx="187.5" cy="22.5" r="1.5"/><circle cx="187.5" cy="27.5" r="1.5"/><circle cx="187.5" cy="32.5" r="1.5"/><circle cx="187.5" cy="37.5" r="1.5"/><circle cx="187.5" cy="187.5" r="1.5"/><circle cx="187.5" cy="192.5" r="1.5"/><circle cx="187.5" cy="197.5" r="1.5"/><circle cx="187.5" cy="202.5" r="1.5"/><circle cx="187.5" cy="207.5" r="1.5"/><circle cx="187.5" cy="212.5" r="1.5"/><circle cx="187.5" cy="217.5" r="1.5"/><circle cx="187.5" cy="222.5" r="1.5"/><circle cx="187.5" cy="227.5" r="1.5"/><circle cx="192.5" cy="12.5" r="1.5"/><circle cx="192.5" cy="17.5" r="1.5"/><circle cx="192.5" cy="22.5" r="1.5"/><circle cx="192.5" cy="27.5" r="1.5"/><circle cx="192.5" cy="32.5" r="1.5"/><circle cx="192.5" cy="37.5" r="1.5"/><circle cx="192.5" cy="42.5" r="1.5"/><circle cx="192.5" cy="47.5" r="1.5"/><circle cx="192.5" cy="52.5" r="1.5"/><circle cx="192.5" cy="57.5" r="1.5"/><circle cx="192.5" cy="67.5" r="1.5"/><circle cx="192.5" cy="72.5" r="1.5"/><circle cx="192.5" cy="187.5" r="1.5"/><circle cx="192.5" cy="192.5" r="1.5"/><circle cx="192.5" cy="197.5" r="1.5"/><circle cx="192.5" cy="202.5" r="1.5"/><circle cx="192.5" cy="207.5" r="1.5"/><circle cx="192.5" cy="212.5" r="1.5"/><circle cx="192.5" cy="217.5" r="1.5"/><circle cx="197.5" cy="17.5" r="1.5"/><circle cx="197.5" cy="22.5" r="1.5"/><circle cx="197.5" cy="27.5" r="1.5"/><circle cx="197.5" cy="32.5" r="1.5"/><circle cx="197.5" cy="37.5" r="1.5"/><circle cx="197.5" cy="42.5" r="1.5"/><circle cx="197.5" cy="47.5" r="1.5"/><circle cx="197.5" cy="52.5" r="1.5"/><circle cx="197.5" cy="57.5" r="1.5"/><circle cx="197.5" cy="62.5" r="1.5"/><circle cx="197.5" cy="67.5" r="1.5"/><circle cx="197.5" cy="72.5" r="1.5"/><circle cx="197.5" cy="77.5" r="1.5"/><circle cx="197.5" cy="187.5" r="1.5"/><circle cx="197.5" cy="192.5" r="1.5"/><circle cx="197.5" cy="197.5" r="1.5"/><circle cx="197.5" cy="202.5" r="1.5"/><circle cx="197.5" cy="207.5" r="1.5"/><circle cx="197.5" cy="212.5" r="1.5"/><circle cx="202.5" cy="12.5" r="1.5"/><circle cx="202.5" cy="17.5" r="1.5"/><circle cx="202.5" cy="22.5" r="1.5"/><circle cx="202.5" cy="27.5" r="1.5"/><circle cx="202.5" cy="32.5" r="1.5"/><circle cx="202.5" cy="37.5" r="1.5"/><circle cx="202.5" cy="42.5" r="1.5"/><circle cx="202.5" cy="47.5" r="1.5"/><circle cx="202.5" cy="52.5" r="1.5"/><circle cx="202.5" cy="57.5" r="1.5"/><circle cx="202.5" cy="62.5" r="1.5"/><circle cx="202.5" cy="67.5" r="1.5"/><circle cx="202.5" cy="72.5" r="1.5"/><circle cx="202.5" cy="77.5" r="1.5"/><circle cx="202.5" cy="82.5" r="1.5"/><circle cx="202.5" cy="187.5" r="1.5"/><circle cx="202.5" cy="192.5" r="1.5"/><circle cx="202.5" cy="197.5" r="1.5"/><circle cx="202.5" cy="202.5" r="1.5"/><circle cx="207.5" cy="7.5" r="1.5"/><circle cx="207.5" cy="12.5" r="1.5"/><circle cx="207.5" cy="17.5" r="1.5"/><circle cx="207.5" cy="22.5" r="1.5"/><circle cx="207.5" cy="27.5" r="1.5"/><circle cx="207.5" cy="32.5" r="1.5"/><circle cx="207.5" cy="37.5" r="1.5"/><circle cx="207.5" cy="42.5" r="1.5"/><circle cx="207.5" cy="47.5" r="1.5"/><circle cx="207.5" cy="52.5" r="1.5"/><circle cx="207.5" cy="57.5" r="1.5"/><circle cx="207.5" cy="62.5" r="1.5"/><circle cx="207.5" cy="67.5" r="1.5"/><circle cx="207.5" cy="72.5" r="1.5"/><circle cx="207.5" cy="77.5" r="1.5"/><circle cx="207.5" cy="192.5" r="1.5"/><circle cx="207.5" cy="197.5" r="1.5"/><circle cx="212.5" cy="7.5" r="1.5"/><circle cx="212.5" cy="12.5" r="1.5"/><circle cx="212.5" cy="17.5" r="1.5"/><circle cx="212.5" cy="22.5" r="1.5"/><circle cx="212.5" cy="27.5" r="1.5"/><circle cx="212.5" cy="32.5" r="1.5"/><circle cx="212.5" cy="37.5" r="1.5"/><circle cx="212.5" cy="42.5" r="1.5"/><circle cx="212.5" cy="47.5" r="1.5"/><circle cx="212.5" cy="52.5" r="1.5"/><circle cx="212.5" cy="57.5" r="1.5"/><circle cx="212.5" cy="62.5" r="1.5"/><circle cx="212.5" cy="67.5" r="1.5"/><circle cx="212.5" cy="72.5" r="1.5"/><circle cx="217.5" cy="2.5" r="1.5"/><circle cx="217.5" cy="7.5" r="1.5"/><circle cx="217.5" cy="12.5" r="1.5"/><circle cx="217.5" cy="17.5" r="1.5"/><circle cx="217.5" cy="22.5" r="1.5"/><circle cx="217.5" cy="27.5" r="1.5"/><circle cx="217.5" cy="32.5" r="1.5"/><circle cx="217.5" cy="37.5" r="1.5"/><circle cx="217.5" cy="42.5" r="1.5"/><circle cx="217.5" cy="47.5" r="1.5"/><circle cx="217.5" cy="52.5" r="1.5"/><circle cx="217.5" cy="57.5" r="1.5"/><circle cx="217.5" cy="62.5" r="1.5"/><circle cx="217.5" cy="67.5" r="1.5"/><circle cx="217.5" cy="72.5" r="1.5"/><circle cx="222.5" cy="2.5" r="1.5"/><circle cx="222.5" cy="7.5" r="1.5"/><circle cx="222.5" cy="12.5" r="1.5"/><circle cx="222.5" cy="17.5" r="1.5"/><circle cx="222.5" cy="22.5" r="1.5"/><circle cx="222.5" cy="27.5" r="1.5"/><circle cx="222.5" cy="32.5" r="1.5"/><circle cx="222.5" cy="37.5" r="1.5"/><circle cx="222.5" cy="42.5" r="1.5"/><circle cx="222.5" cy="47.5" r="1.5"/><circle cx="222.5" cy="52.5" r="1.5"/><circle cx="222.5" cy="57.5" r="1.5"/><circle cx="222.5" cy="62.5" r="1.5"/><circle cx="222.5" cy="67.5" r="1.5"/><circle cx="227.5" cy="2.5" r="1.5"/><circle cx="227.5" cy="7.5" r="1.5"/><circle cx="227.5" cy="12.5" r="1.5"/><circle cx="227.5" cy="17.5" r="1.5"/><circle cx="227.5" cy="22.5" r="1.5"/><circle cx="227.5" cy="27.5" r="1.5"/><circle cx="227.5" cy="32.5" r="1.5"/><circle cx="227.5" cy="37.5" r="1.5"/><circle cx="227.5" cy="42.5" r="1.5"/><circle cx="227.5" cy="47.5" r="1.5"/><circle cx="227.5" cy="52.5" r="1.5"/><circle cx="227.5" cy="57.5" r="1.5"/><circle cx="227.5" cy="62.5" r="1.5"/><circle cx="227.5" cy="67.5" r="1.5"/><circle cx="232.5" cy="2.5" r="1.5"/><circle cx="232.5" cy="7.5" r="1.5"/><circle cx="232.5" cy="12.5" r="1.5"/><circle cx="232.5" cy="17.5" r="1.5"/><circle cx="232.5" cy="22.5" r="1.5"/><circle cx="232.5" cy="27.5" r="1.5"/><circle cx="232.5" cy="32.5" r="1.5"/><circle cx="232.5" cy="37.5" r="1.5"/><circle cx="232.5" cy="42.5" r="1.5"/><circle cx="232.5" cy="47.5" r="1.5"/><circle cx="232.5" cy="52.5" r="1.5"/><circle cx="232.5" cy="57.5" r="1.5"/><circle cx="232.5" cy="62.5" r="1.5"/><circle cx="232.5" cy="72.5" r="1.5"/><circle cx="232.5" cy="77.5" r="1.5"/><circle cx="237.5" cy="7.5" r="1.5"/><circle cx="237.5" cy="12.5" r="1.5"/><circle cx="237.5" cy="17.5" r="1.5"/><circle cx="237.5" cy="22.5" r="1.5"/><circle cx="237.5" cy="27.5" r="1.5"/><circle cx="237.5" cy="32.5" r="1.5"/><circle cx="237.5" cy="37.5" r="1.5"/><circle cx="237.5" cy="42.5" r="1.5"/><circle cx="237.5" cy="47.5" r="1.5"/><circle cx="237.5" cy="52.5" r="1.5"/><circle cx="237.5" cy="57.5" r="1.5"/><circle cx="237.5" cy="72.5" r="1.5"/><circle cx="237.5" cy="77.5" r="1.5"/><circle cx="237.5" cy="152.5" r="1.5"/><circle cx="237.5" cy="157.5" r="1.5"/><circle cx="237.5" cy="162.5" r="1.5"/><circle cx="237.5" cy="167.5" r="1.5"/><circle cx="242.5" cy="12.5" r="1.5"/><circle cx="242.5" cy="17.5" r="1.5"/><circle cx="242.5" cy="22.5" r="1.5"/><circle cx="242.5" cy="27.5" r="1.5"/><circle cx="242.5" cy="32.5" r="1.5"/><circle cx="242.5" cy="37.5" r="1.5"/><circle cx="242.5" cy="42.5" r="1.5"/><circle cx="242.5" cy="47.5" r="1.5"/><circle cx="242.5" cy="72.5" r="1.5"/><circle cx="242.5" cy="77.5" r="1.5"/><circle cx="242.5" cy="147.5" r="1.5"/><circle cx="242.5" cy="152.5" r="1.5"/><circle cx="242.5" cy="157.5" r="1.5"/><circle cx="242.5" cy="162.5" r="1.5"/><circle cx="242.5" cy="167.5" r="1.5"/><circle cx="242.5" cy="172.5" r="1.5"/><circle cx="247.5" cy="17.5" r="1.5"/><circle cx="247.5" cy="22.5" r="1.5"/><circle cx="247.5" cy="27.5" r="1.5"/><circle cx="247.5" cy="102.5" r="1.5"/><circle cx="247.5" cy="142.5" r="1.5"/><circle cx="247.5" cy="147.5" r="1.5"/><circle cx="247.5" cy="152.5" r="1.5"/><circle cx="247.5" cy="157.5" r="1.5"/><circle cx="247.5" cy="162.5" r="1.5"/><circle cx="247.5" cy="167.5" r="1.5"/><circle cx="247.5" cy="172.5" r="1.5"/><circle cx="252.5" cy="22.5" r="1.5"/><circle cx="252.5" cy="97.5" r="1.5"/><circle cx="252.5" cy="102.5" r="1.5"/><circle cx="252.5" cy="117.5" r="1.5"/><circle cx="252.5" cy="122.5" r="1.5"/><circle cx="252.5" cy="127.5" r="1.5"/><circle cx="252.5" cy="137.5" r="1.5"/><circle cx="252.5" cy="142.5" r="1.5"/><circle cx="252.5" cy="147.5" r="1.5"/><circle cx="252.5" cy="152.5" r="1.5"/><circle cx="252.5" cy="157.5" r="1.5"/><circle cx="252.5" cy="162.5" r="1.5"/><circle cx="252.5" cy="167.5" r="1.5"/><circle cx="252.5" cy="172.5" r="1.5"/><circle cx="252.5" cy="177.5" r="1.5"/><circle cx="257.5" cy="87.5" r="1.5"/><circle cx="257.5" cy="92.5" r="1.5"/><circle cx="257.5" cy="97.5" r="1.5"/><circle cx="257.5" cy="102.5" r="1.5"/><circle cx="257.5" cy="107.5" r="1.5"/><circle cx="257.5" cy="117.5" r="1.5"/><circle cx="257.5" cy="122.5" r="1.5"/><circle cx="257.5" cy="127.5" r="1.5"/><circle cx="257.5" cy="132.5" r="1.5"/><circle cx="257.5" cy="137.5" r="1.5"/><circle cx="257.5" cy="142.5" r="1.5"/><circle cx="257.5" cy="147.5" r="1.5"/><circle cx="257.5" cy="152.5" r="1.5"/><circle cx="257.5" cy="157.5" r="1.5"/><circle cx="257.5" cy="162.5" r="1.5"/><circle cx="257.5" cy="167.5" r="1.5"/><circle cx="257.5" cy="172.5" r="1.5"/><circle cx="257.5" cy="177.5" r="1.5"/><circle cx="262.5" cy="92.5" r="1.5"/><circle cx="262.5" cy="97.5" r="1.5"/><circle cx="262.5" cy="102.5" r="1.5"/><circle cx="262.5" cy="112.5" r="1.5"/><circle cx="262.5" cy="117.5" r="1.5"/><circle cx="262.5" cy="122.5" r="1.5"/><circle cx="262.5" cy="127.5" r="1.5"/><circle cx="262.5" cy="132.5" r="1.5"/><circle cx="262.5" cy="137.5" r="1.5"/><circle cx="262.5" cy="142.5" r="1.5"/><circle cx="262.5" cy="147.5" r="1.5"/><circle cx="262.5" cy="152.5" r="1.5"/><circle cx="262.5" cy="157.5" r="1.5"/><circle cx="262.5" cy="162.5" r="1.5"/><circle cx="262.5" cy="167.5" r="1.5"/><circle cx="262.5" cy="172.5" r="1.5"/><circle cx="262.5" cy="177.5" r="1.5"/><circle cx="267.5" cy="107.5" r="1.5"/><circle cx="267.5" cy="112.5" r="1.5"/><circle cx="267.5" cy="117.5" r="1.5"/><circle cx="267.5" cy="122.5" r="1.5"/><circle cx="267.5" cy="132.5" r="1.5"/><circle cx="267.5" cy="137.5" r="1.5"/><circle cx="267.5" cy="142.5" r="1.5"/><circle cx="267.5" cy="147.5" r="1.5"/><circle cx="267.5" cy="152.5" r="1.5"/><circle cx="267.5" cy="157.5" r="1.5"/><circle cx="267.5" cy="162.5" r="1.5"/><circle cx="267.5" cy="167.5" r="1.5"/><circle cx="267.5" cy="172.5" r="1.5"/><circle cx="272.5" cy="82.5" r="1.5"/><circle cx="272.5" cy="87.5" r="1.5"/><circle cx="272.5" cy="102.5" r="1.5"/><circle cx="272.5" cy="107.5" r="1.5"/><circle cx="272.5" cy="112.5" r="1.5"/><circle cx="272.5" cy="117.5" r="1.5"/><circle cx="272.5" cy="132.5" r="1.5"/><circle cx="272.5" cy="137.5" r="1.5"/><circle cx="272.5" cy="142.5" r="1.5"/><circle cx="272.5" cy="147.5" r="1.5"/><circle cx="272.5" cy="152.5" r="1.5"/><circle cx="272.5" cy="157.5" r="1.5"/><circle cx="272.5" cy="162.5" r="1.5"/><circle cx="272.5" cy="167.5" r="1.5"/><circle cx="272.5" cy="172.5" r="1.5"/><circle cx="272.5" cy="177.5" r="1.5"/><circle cx="277.5" cy="27.5" r="1.5"/><circle cx="277.5" cy="32.5" r="1.5"/><circle cx="277.5" cy="37.5" r="1.5"/><circle cx="277.5" cy="77.5" r="1.5"/><circle cx="277.5" cy="82.5" r="1.5"/><circle cx="277.5" cy="87.5" r="1.5"/><circle cx="277.5" cy="92.5" r="1.5"/><circle cx="277.5" cy="97.5" r="1.5"/><circle cx="277.5" cy="102.5" r="1.5"/><circle cx="277.5" cy="107.5" r="1.5"/><circle cx="277.5" cy="112.5" r="1.5"/><circle cx="277.5" cy="117.5" r="1.5"/><circle cx="277.5" cy="122.5" r="1.5"/><circle cx="277.5" cy="127.5" r="1.5"/><circle cx="277.5" cy="132.5" r="1.5"/><circle cx="277.5" cy="137.5" r="1.5"/><circle cx="277.5" cy="142.5" r="1.5"/><circle cx="277.5" cy="147.5" r="1.5"/><circle cx="277.5" cy="152.5" r="1.5"/><circle cx="277.5" cy="157.5" r="1.5"/><circle cx="277.5" cy="162.5" r="1.5"/><circle cx="277.5" cy="167.5" r="1.5"/><circle cx="277.5" cy="172.5" r="1.5"/><circle cx="277.5" cy="177.5" r="1.5"/><circle cx="282.5" cy="27.5" r="1.5"/><circle cx="282.5" cy="32.5" r="1.5"/><circle cx="282.5" cy="37.5" r="1.5"/><circle cx="282.5" cy="42.5" r="1.5"/><circle cx="282.5" cy="67.5" r="1.5"/><circle cx="282.5" cy="72.5" r="1.5"/><circle cx="282.5" cy="77.5" r="1.5"/><circle cx="282.5" cy="82.5" r="1.5"/><circle cx="282.5" cy="87.5" r="1.5"/><circle cx="282.5" cy="92.5" r="1.5"/><circle cx="282.5" cy="97.5" r="1.5"/><circle cx="282.5" cy="102.5" r="1.5"/><circle cx="282.5" cy="107.5" r="1.5"/><circle cx="282.5" cy="112.5" r="1.5"/><circle cx="282.5" cy="117.5" r="1.5"/><circle cx="282.5" cy="132.5" r="1.5"/><circle cx="282.5" cy="137.5" r="1.5"/><circle cx="282.5" cy="142.5" r="1.5"/><circle cx="282.5" cy="147.5" r="1.5"/><circle cx="282.5" cy="152.5" r="1.5"/><circle cx="282.5" cy="157.5" r="1.5"/><circle cx="282.5" cy="162.5" r="1.5"/><circle cx="282.5" cy="167.5" r="1.5"/><circle cx="282.5" cy="172.5" r="1.5"/><circle cx="282.5" cy="177.5" r="1.5"/><circle cx="282.5" cy="182.5" r="1.5"/><circle cx="282.5" cy="187.5" r="1.5"/><circle cx="282.5" cy="192.5" r="1.5"/><circle cx="282.5" cy="207.5" r="1.5"/><circle cx="282.5" cy="212.5" r="1.5"/><circle cx="287.5" cy="27.5" r="1.5"/><circle cx="287.5" cy="32.5" r="1.5"/><circle cx="287.5" cy="37.5" r="1.5"/><circle cx="287.5" cy="62.5" r="1.5"/><circle cx="287.5" cy="67.5" r="1.5"/><circle cx="287.5" cy="72.5" r="1.5"/><circle cx="287.5" cy="77.5" r="1.5"/><circle cx="287.5" cy="82.5" r="1.5"/><circle cx="287.5" cy="87.5" r="1.5"/><circle cx="287.5" cy="92.5" r="1.5"/><circle cx="287.5" cy="102.5" r="1.5"/><circle cx="287.5" cy="107.5" r="1.5"/><circle cx="287.5" cy="112.5" r="1.5"/><circle cx="287.5" cy="122.5" r="1.5"/><circle cx="287.5" cy="127.5" r="1.5"/><circle cx="287.5" cy="137.5" r="1.5"/><circle cx="287.5" cy="142.5" r="1.5"/><circle cx="287.5" cy="147.5" r="1.5"/><circle cx="287.5" cy="152.5" r="1.5"/><circle cx="287.5" cy="157.5" r="1.5"/><circle cx="287.5" cy="162.5" r="1.5"/><circle cx="287.5" cy="167.5" r="1.5"/><circle cx="287.5" cy="172.5" r="1.5"/><circle cx="287.5" cy="177.5" r="1.5"/><circle cx="287.5" cy="182.5" r="1.5"/><circle cx="287.5" cy="187.5" r="1.5"/><circle cx="287.5" cy="192.5" r="1.5"/><circle cx="287.5" cy="197.5" r="1.5"/><circle cx="287.5" cy="202.5" r="1.5"/><circle cx="287.5" cy="207.5" r="1.5"/><circle cx="287.5" cy="212.5" r="1.5"/><circle cx="287.5" cy="217.5" r="1.5"/><circle cx="287.5" cy="222.5" r="1.5"/><circle cx="292.5" cy="27.5" r="1.5"/><circle cx="292.5" cy="37.5" r="1.5"/><circle cx="292.5" cy="57.5" r="1.5"/><circle cx="292.5" cy="62.5" r="1.5"/><circle cx="292.5" cy="67.5" r="1.5"/><circle cx="292.5" cy="72.5" r="1.5"/><circle cx="292.5" cy="77.5" r="1.5"/><circle cx="292.5" cy="97.5" r="1.5"/><circle cx="292.5" cy="102.5" r="1.5"/><circle cx="292.5" cy="107.5" r="1.5"/><circle cx="292.5" cy="112.5" r="1.5"/><circle cx="292.5" cy="117.5" r="1.5"/><circle cx="292.5" cy="127.5" r="1.5"/><circle cx="292.5" cy="142.5" r="1.5"/><circle cx="292.5" cy="147.5" r="1.5"/><circle cx="292.5" cy="152.5" r="1.5"/><circle cx="292.5" cy="157.5" r="1.5"/><circle cx="292.5" cy="162.5" r="1.5"/><circle cx="292.5" cy="167.5" r="1.5"/><circle cx="292.5" cy="172.5" r="1.5"/><circle cx="292.5" cy="177.5" r="1.5"/><circle cx="292.5" cy="182.5" r="1.5"/><circle cx="292.5" cy="187.5" r="1.5"/><circle cx="292.5" cy="192.5" r="1.5"/><circle cx="292.5" cy="197.5" r="1.5"/><circle cx="292.5" cy="202.5" r="1.5"/><circle cx="292.5" cy="207.5" r="1.5"/><circle cx="292.5" cy="212.5" r="1.5"/><circle cx="292.5" cy="217.5" r="1.5"/><circle cx="292.5" cy="222.5" r="1.5"/><circle cx="292.5" cy="227.5" r="1.5"/><circle cx="292.5" cy="232.5" r="1.5"/><circle cx="297.5" cy="57.5" r="1.5"/><circle cx="297.5" cy="62.5" r="1.5"/><circle cx="297.5" cy="67.5" r="1.5"/><circle cx="297.5" cy="72.5" r="1.5"/><circle cx="297.5" cy="77.5" r="1.5"/><circle cx="297.5" cy="82.5" r="1.5"/><circle cx="297.5" cy="87.5" r="1.5"/><circle cx="297.5" cy="92.5" r="1.5"/><circle cx="297.5" cy="97.5" r="1.5"/><circle cx="297.5" cy="102.5" r="1.5"/><circle cx="297.5" cy="107.5" r="1.5"/><circle cx="297.5" cy="112.5" r="1.5"/><circle cx="297.5" cy="117.5" r="1.5"/><circle cx="297.5" cy="122.5" r="1.5"/><circle cx="297.5" cy="137.5" r="1.5"/><circle cx="297.5" cy="142.5" r="1.5"/><circle cx="297.5" cy="147.5" r="1.5"/><circle cx="297.5" cy="152.5" r="1.5"/><circle cx="297.5" cy="157.5" r="1.5"/><circle cx="297.5" cy="162.5" r="1.5"/><circle cx="297.5" cy="167.5" r="1.5"/><circle cx="297.5" cy="172.5" r="1.5"/><circle cx="297.5" cy="177.5" r="1.5"/><circle cx="297.5" cy="182.5" r="1.5"/><circle cx="297.5" cy="187.5" r="1.5"/><circle cx="297.5" cy="192.5" r="1.5"/><circle cx="297.5" cy="197.5" r="1.5"/><circle cx="297.5" cy="202.5" r="1.5"/><circle cx="297.5" cy="207.5" r="1.5"/><circle cx="297.5" cy="212.5" r="1.5"/><circle cx="297.5" cy="217.5" r="1.5"/><circle cx="297.5" cy="222.5" r="1.5"/><circle cx="297.5" cy="227.5" r="1.5"/><circle cx="297.5" cy="232.5" r="1.5"/><circle cx="297.5" cy="237.5" r="1.5"/><circle cx="302.5" cy="57.5" r="1.5"/><circle cx="302.5" cy="62.5" r="1.5"/><circle cx="302.5" cy="67.5" r="1.5"/><circle cx="302.5" cy="72.5" r="1.5"/><circle cx="302.5" cy="77.5" r="1.5"/><circle cx="302.5" cy="82.5" r="1.5"/><circle cx="302.5" cy="87.5" r="1.5"/><circle cx="302.5" cy="92.5" r="1.5"/><circle cx="302.5" cy="97.5" r="1.5"/><circle cx="302.5" cy="102.5" r="1.5"/><circle cx="302.5" cy="107.5" r="1.5"/><circle cx="302.5" cy="112.5" r="1.5"/><circle cx="302.5" cy="117.5" r="1.5"/><circle cx="302.5" cy="122.5" r="1.5"/><circle cx="302.5" cy="127.5" r="1.5"/><circle cx="302.5" cy="137.5" r="1.5"/><circle cx="302.5" cy="142.5" r="1.5"/><circle cx="302.5" cy="147.5" r="1.5"/><circle cx="302.5" cy="152.5" r="1.5"/><circle cx="302.5" cy="157.5" r="1.5"/><circle cx="302.5" cy="162.5" r="1.5"/><circle cx="302.5" cy="167.5" r="1.5"/><circle cx="302.5" cy="172.5" r="1.5"/><circle cx="302.5" cy="177.5" r="1.5"/><circle cx="302.5" cy="182.5" r="1.5"/><circle cx="302.5" cy="187.5" r="1.5"/><circle cx="302.5" cy="192.5" r="1.5"/><circle cx="302.5" cy="197.5" r="1.5"/><circle cx="302.5" cy="202.5" r="1.5"/><circle cx="302.5" cy="207.5" r="1.5"/><circle cx="302.5" cy="212.5" r="1.5"/><circle cx="302.5" cy="217.5" r="1.5"/><circle cx="302.5" cy="222.5" r="1.5"/><circle cx="302.5" cy="227.5" r="1.5"/><circle cx="302.5" cy="232.5" r="1.5"/><circle cx="302.5" cy="237.5" r="1.5"/><circle cx="307.5" cy="62.5" r="1.5"/><circle cx="307.5" cy="67.5" r="1.5"/><circle cx="307.5" cy="72.5" r="1.5"/><circle cx="307.5" cy="77.5" r="1.5"/><circle cx="307.5" cy="82.5" r="1.5"/><circle cx="307.5" cy="87.5" r="1.5"/><circle cx="307.5" cy="92.5" r="1.5"/><circle cx="307.5" cy="97.5" r="1.5"/><circle cx="307.5" cy="102.5" r="1.5"/><circle cx="307.5" cy="107.5" r="1.5"/><circle cx="307.5" cy="112.5" r="1.5"/><circle cx="307.5" cy="117.5" r="1.5"/><circle cx="307.5" cy="122.5" r="1.5"/><circle cx="307.5" cy="127.5" r="1.5"/><circle cx="307.5" cy="137.5" r="1.5"/><circle cx="307.5" cy="142.5" r="1.5"/><circle cx="307.5" cy="147.5" r="1.5"/><circle cx="307.5" cy="152.5" r="1.5"/><circle cx="307.5" cy="157.5" r="1.5"/><circle cx="307.5" cy="162.5" r="1.5"/><circle cx="307.5" cy="167.5" r="1.5"/><circle cx="307.5" cy="172.5" r="1.5"/><circle cx="307.5" cy="177.5" r="1.5"/><circle cx="307.5" cy="182.5" r="1.5"/><circle cx="307.5" cy="187.5" r="1.5"/><circle cx="307.5" cy="192.5" r="1.5"/><circle cx="307.5" cy="197.5" r="1.5"/><circle cx="307.5" cy="202.5" r="1.5"/><circle cx="307.5" cy="207.5" r="1.5"/><circle cx="307.5" cy="212.5" r="1.5"/><circle cx="307.5" cy="217.5" r="1.5"/><circle cx="307.5" cy="222.5" r="1.5"/><circle cx="307.5" cy="227.5" r="1.5"/><circle cx="307.5" cy="232.5" r="1.5"/><circle cx="307.5" cy="237.5" r="1.5"/><circle cx="312.5" cy="22.5" r="1.5"/><circle cx="312.5" cy="62.5" r="1.5"/><circle cx="312.5" cy="67.5" r="1.5"/><circle cx="312.5" cy="77.5" r="1.5"/><circle cx="312.5" cy="82.5" r="1.5"/><circle cx="312.5" cy="87.5" r="1.5"/><circle cx="312.5" cy="92.5" r="1.5"/><circle cx="312.5" cy="97.5" r="1.5"/><circle cx="312.5" cy="102.5" r="1.5"/><circle cx="312.5" cy="107.5" r="1.5"/><circle cx="312.5" cy="112.5" r="1.5"/><circle cx="312.5" cy="122.5" r="1.5"/><circle cx="312.5" cy="127.5" r="1.5"/><circle cx="312.5" cy="137.5" r="1.5"/><circle cx="312.5" cy="142.5" r="1.5"/><circle cx="312.5" cy="147.5" r="1.5"/><circle cx="312.5" cy="152.5" r="1.5"/><circle cx="312.5" cy="157.5" r="1.5"/><circle cx="312.5" cy="162.5" r="1.5"/><circle cx="312.5" cy="167.5" r="1.5"/><circle cx="312.5" cy="172.5" r="1.5"/><circle cx="312.5" cy="177.5" r="1.5"/><circle cx="312.5" cy="182.5" r="1.5"/><circle cx="312.5" cy="187.5" r="1.5"/><circle cx="312.5" cy="192.5" r="1.5"/><circle cx="312.5" cy="197.5" r="1.5"/><circle cx="312.5" cy="202.5" r="1.5"/><circle cx="312.5" cy="207.5" r="1.5"/><circle cx="312.5" cy="212.5" r="1.5"/><circle cx="312.5" cy="217.5" r="1.5"/><circle cx="312.5" cy="222.5" r="1.5"/><circle cx="312.5" cy="227.5" r="1.5"/><circle cx="312.5" cy="232.5" r="1.5"/><circle cx="317.5" cy="17.5" r="1.5"/><circle cx="317.5" cy="22.5" r="1.5"/><circle cx="317.5" cy="27.5" r="1.5"/><circle cx="317.5" cy="67.5" r="1.5"/><circle cx="317.5" cy="72.5" r="1.5"/><circle cx="317.5" cy="77.5" r="1.5"/><circle cx="317.5" cy="82.5" r="1.5"/><circle cx="317.5" cy="87.5" r="1.5"/><circle cx="317.5" cy="92.5" r="1.5"/><circle cx="317.5" cy="97.5" r="1.5"/><circle cx="317.5" cy="102.5" r="1.5"/><circle cx="317.5" cy="107.5" r="1.5"/><circle cx="317.5" cy="112.5" r="1.5"/><circle cx="317.5" cy="122.5" r="1.5"/><circle cx="317.5" cy="127.5" r="1.5"/><circle cx="317.5" cy="137.5" r="1.5"/><circle cx="317.5" cy="142.5" r="1.5"/><circle cx="317.5" cy="147.5" r="1.5"/><circle cx="317.5" cy="152.5" r="1.5"/><circle cx="317.5" cy="157.5" r="1.5"/><circle cx="317.5" cy="162.5" r="1.5"/><circle cx="317.5" cy="167.5" r="1.5"/><circle cx="317.5" cy="172.5" r="1.5"/><circle cx="317.5" cy="177.5" r="1.5"/><circle cx="317.5" cy="182.5" r="1.5"/><circle cx="317.5" cy="187.5" r="1.5"/><circle cx="317.5" cy="192.5" r="1.5"/><circle cx="317.5" cy="197.5" r="1.5"/><circle cx="317.5" cy="202.5" r="1.5"/><circle cx="317.5" cy="207.5" r="1.5"/><circle cx="317.5" cy="212.5" r="1.5"/><circle cx="317.5" cy="217.5" r="1.5"/><circle cx="317.5" cy="222.5" r="1.5"/><circle cx="317.5" cy="227.5" r="1.5"/><circle cx="322.5" cy="17.5" r="1.5"/><circle cx="322.5" cy="22.5" r="1.5"/><circle cx="322.5" cy="67.5" r="1.5"/><circle cx="322.5" cy="72.5" r="1.5"/><circle cx="322.5" cy="77.5" r="1.5"/><circle cx="322.5" cy="82.5" r="1.5"/><circle cx="322.5" cy="87.5" r="1.5"/><circle cx="322.5" cy="92.5" r="1.5"/><circle cx="322.5" cy="97.5" r="1.5"/><circle cx="322.5" cy="102.5" r="1.5"/><circle cx="322.5" cy="107.5" r="1.5"/><circle cx="322.5" cy="122.5" r="1.5"/><circle cx="322.5" cy="127.5" r="1.5"/><circle cx="322.5" cy="132.5" r="1.5"/><circle cx="322.5" cy="137.5" r="1.5"/><circle cx="322.5" cy="142.5" r="1.5"/><circle cx="322.5" cy="152.5" r="1.5"/><circle cx="322.5" cy="157.5" r="1.5"/><circle cx="322.5" cy="162.5" r="1.5"/><circle cx="322.5" cy="167.5" r="1.5"/><circle cx="322.5" cy="172.5" r="1.5"/><circle cx="322.5" cy="177.5" r="1.5"/><circle cx="322.5" cy="182.5" r="1.5"/><circle cx="322.5" cy="187.5" r="1.5"/><circle cx="322.5" cy="192.5" r="1.5"/><circle cx="322.5" cy="197.5" r="1.5"/><circle cx="322.5" cy="202.5" r="1.5"/><circle cx="322.5" cy="207.5" r="1.5"/><circle cx="322.5" cy="212.5" r="1.5"/><circle cx="322.5" cy="217.5" r="1.5"/><circle cx="322.5" cy="222.5" r="1.5"/><circle cx="327.5" cy="17.5" r="1.5"/><circle cx="327.5" cy="22.5" r="1.5"/><circle cx="327.5" cy="62.5" r="1.5"/><circle cx="327.5" cy="67.5" r="1.5"/><circle cx="327.5" cy="72.5" r="1.5"/><circle cx="327.5" cy="77.5" r="1.5"/><circle cx="327.5" cy="82.5" r="1.5"/><circle cx="327.5" cy="87.5" r="1.5"/><circle cx="327.5" cy="92.5" r="1.5"/><circle cx="327.5" cy="97.5" r="1.5"/><circle cx="327.5" cy="102.5" r="1.5"/><circle cx="327.5" cy="107.5" r="1.5"/><circle cx="327.5" cy="112.5" r="1.5"/><circle cx="327.5" cy="117.5" r="1.5"/><circle cx="327.5" cy="122.5" r="1.5"/><circle cx="327.5" cy="127.5" r="1.5"/><circle cx="327.5" cy="132.5" r="1.5"/><circle cx="327.5" cy="137.5" r="1.5"/><circle cx="327.5" cy="142.5" r="1.5"/><circle cx="327.5" cy="147.5" r="1.5"/><circle cx="327.5" cy="157.5" r="1.5"/><circle cx="327.5" cy="162.5" r="1.5"/><circle cx="327.5" cy="167.5" r="1.5"/><circle cx="327.5" cy="172.5" r="1.5"/><circle cx="327.5" cy="177.5" r="1.5"/><circle cx="327.5" cy="182.5" r="1.5"/><circle cx="327.5" cy="187.5" r="1.5"/><circle cx="327.5" cy="192.5" r="1.5"/><circle cx="327.5" cy="197.5" r="1.5"/><circle cx="327.5" cy="202.5" r="1.5"/><circle cx="327.5" cy="207.5" r="1.5"/><circle cx="327.5" cy="212.5" r="1.5"/><circle cx="332.5" cy="17.5" r="1.5"/><circle cx="332.5" cy="22.5" r="1.5"/><circle cx="332.5" cy="42.5" r="1.5"/><circle cx="332.5" cy="47.5" r="1.5"/><circle cx="332.5" cy="52.5" r="1.5"/><circle cx="332.5" cy="62.5" r="1.5"/><circle cx="332.5" cy="67.5" r="1.5"/><circle cx="332.5" cy="72.5" r="1.5"/><circle cx="332.5" cy="77.5" r="1.5"/><circle cx="332.5" cy="82.5" r="1.5"/><circle cx="332.5" cy="87.5" r="1.5"/><circle cx="332.5" cy="92.5" r="1.5"/><circle cx="332.5" cy="97.5" r="1.5"/><circle cx="332.5" cy="102.5" r="1.5"/><circle cx="332.5" cy="107.5" r="1.5"/><circle cx="332.5" cy="112.5" r="1.5"/><circle cx="332.5" cy="117.5" r="1.5"/><circle cx="332.5" cy="122.5" r="1.5"/><circle cx="332.5" cy="127.5" r="1.5"/><circle cx="332.5" cy="132.5" r="1.5"/><circle cx="332.5" cy="137.5" r="1.5"/><circle cx="332.5" cy="142.5" r="1.5"/><circle cx="332.5" cy="147.5" r="1.5"/><circle cx="332.5" cy="152.5" r="1.5"/><circle cx="332.5" cy="162.5" r="1.5"/><circle cx="332.5" cy="167.5" r="1.5"/><circle cx="332.5" cy="172.5" r="1.5"/><circle cx="332.5" cy="177.5" r="1.5"/><circle cx="332.5" cy="182.5" r="1.5"/><circle cx="332.5" cy="187.5" r="1.5"/><circle cx="332.5" cy="192.5" r="1.5"/><circle cx="332.5" cy="197.5" r="1.5"/><circle cx="332.5" cy="202.5" r="1.5"/><circle cx="332.5" cy="207.5" r="1.5"/><circle cx="337.5" cy="37.5" r="1.5"/><circle cx="337.5" cy="42.5" r="1.5"/><circle cx="337.5" cy="47.5" r="1.5"/><circle cx="337.5" cy="52.5" r="1.5"/><circle cx="337.5" cy="57.5" r="1.5"/><circle cx="337.5" cy="62.5" r="1.5"/><circle cx="337.5" cy="67.5" r="1.5"/><circle cx="337.5" cy="72.5" r="1.5"/><circle cx="337.5" cy="77.5" r="1.5"/><circle cx="337.5" cy="82.5" r="1.5"/><circle cx="337.5" cy="87.5" r="1.5"/><circle cx="337.5" cy="92.5" r="1.5"/><circle cx="337.5" cy="97.5" r="1.5"/><circle cx="337.5" cy="102.5" r="1.5"/><circle cx="337.5" cy="107.5" r="1.5"/><circle cx="337.5" cy="112.5" r="1.5"/><circle cx="337.5" cy="117.5" r="1.5"/><circle cx="337.5" cy="122.5" r="1.5"/><circle cx="337.5" cy="127.5" r="1.5"/><circle cx="337.5" cy="132.5" r="1.5"/><circle cx="337.5" cy="137.5" r="1.5"/><circle cx="337.5" cy="142.5" r="1.5"/><circle cx="337.5" cy="147.5" r="1.5"/><circle cx="337.5" cy="152.5" r="1.5"/><circle cx="337.5" cy="157.5" r="1.5"/><circle cx="337.5" cy="167.5" r="1.5"/><circle cx="337.5" cy="172.5" r="1.5"/><circle cx="337.5" cy="177.5" r="1.5"/><circle cx="337.5" cy="182.5" r="1.5"/><circle cx="337.5" cy="187.5" r="1.5"/><circle cx="337.5" cy="212.5" r="1.5"/><circle cx="337.5" cy="217.5" r="1.5"/><circle cx="337.5" cy="222.5" r="1.5"/><circle cx="342.5" cy="32.5" r="1.5"/><circle cx="342.5" cy="37.5" r="1.5"/><circle cx="342.5" cy="57.5" r="1.5"/><circle cx="342.5" cy="62.5" r="1.5"/><circle cx="342.5" cy="67.5" r="1.5"/><circle cx="342.5" cy="72.5" r="1.5"/><circle cx="342.5" cy="77.5" r="1.5"/><circle cx="342.5" cy="82.5" r="1.5"/><circle cx="342.5" cy="87.5" r="1.5"/><circle cx="342.5" cy="92.5" r="1.5"/><circle cx="342.5" cy="97.5" r="1.5"/><circle cx="342.5" cy="102.5" r="1.5"/><circle cx="342.5" cy="107.5" r="1.5"/><circle cx="342.5" cy="112.5" r="1.5"/><circle cx="342.5" cy="122.5" r="1.5"/><circle cx="342.5" cy="127.5" r="1.5"/><circle cx="342.5" cy="132.5" r="1.5"/><circle cx="342.5" cy="137.5" r="1.5"/><circle cx="342.5" cy="142.5" r="1.5"/><circle cx="342.5" cy="147.5" r="1.5"/><circle cx="342.5" cy="152.5" r="1.5"/><circle cx="342.5" cy="157.5" r="1.5"/><circle cx="342.5" cy="162.5" r="1.5"/><circle cx="342.5" cy="172.5" r="1.5"/><circle cx="342.5" cy="177.5" r="1.5"/><circle cx="342.5" cy="182.5" r="1.5"/><circle cx="342.5" cy="207.5" r="1.5"/><circle cx="342.5" cy="212.5" r="1.5"/><circle cx="342.5" cy="217.5" r="1.5"/><circle cx="342.5" cy="222.5" r="1.5"/><circle cx="347.5" cy="57.5" r="1.5"/><circle cx="347.5" cy="62.5" r="1.5"/><circle cx="347.5" cy="67.5" r="1.5"/><circle cx="347.5" cy="72.5" r="1.5"/><circle cx="347.5" cy="77.5" r="1.5"/><circle cx="347.5" cy="82.5" r="1.5"/><circle cx="347.5" cy="87.5" r="1.5"/><circle cx="347.5" cy="92.5" r="1.5"/><circle cx="347.5" cy="97.5" r="1.5"/><circle cx="347.5" cy="102.5" r="1.5"/><circle cx="347.5" cy="107.5" r="1.5"/><circle cx="347.5" cy="112.5" r="1.5"/><circle cx="347.5" cy="117.5" r="1.5"/><circle cx="347.5" cy="127.5" r="1.5"/><circle cx="347.5" cy="132.5" r="1.5"/><circle cx="347.5" cy="137.5" r="1.5"/><circle cx="347.5" cy="147.5" r="1.5"/><circle cx="347.5" cy="152.5" r="1.5"/><circle cx="347.5" cy="157.5" r="1.5"/><circle cx="347.5" cy="162.5" r="1.5"/><circle cx="347.5" cy="172.5" r="1.5"/><circle cx="347.5" cy="177.5" r="1.5"/><circle cx="347.5" cy="202.5" r="1.5"/><circle cx="347.5" cy="207.5" r="1.5"/><circle cx="347.5" cy="212.5" r="1.5"/><circle cx="347.5" cy="217.5" r="1.5"/><circle cx="352.5" cy="47.5" r="1.5"/><circle cx="352.5" cy="52.5" r="1.5"/><circle cx="352.5" cy="57.5" r="1.5"/><circle cx="352.5" cy="62.5" r="1.5"/><circle cx="352.5" cy="67.5" r="1.5"/><circle cx="352.5" cy="72.5" r="1.5"/><circle cx="352.5" cy="77.5" r="1.5"/><circle cx="352.5" cy="82.5" r="1.5"/><circle cx="352.5" cy="87.5" r="1.5"/><circle cx="352.5" cy="92.5" r="1.5"/><circle cx="352.5" cy="97.5" r="1.5"/><circle cx="352.5" cy="102.5" r="1.5"/><circle cx="352.5" cy="107.5" r="1.5"/><circle cx="352.5" cy="112.5" r="1.5"/><circle cx="352.5" cy="117.5" r="1.5"/><circle cx="352.5" cy="122.5" r="1.5"/><circle cx="352.5" cy="127.5" r="1.5"/><circle cx="352.5" cy="132.5" r="1.5"/><circle cx="352.5" cy="137.5" r="1.5"/><circle cx="352.5" cy="142.5" r="1.5"/><circle cx="352.5" cy="152.5" r="1.5"/><circle cx="352.5" cy="157.5" r="1.5"/><circle cx="352.5" cy="162.5" r="1.5"/><circle cx="352.5" cy="172.5" r="1.5"/><circle cx="357.5" cy="12.5" r="1.5"/><circle cx="357.5" cy="47.5" r="1.5"/><circle cx="357.5" cy="52.5" r="1.5"/><circle cx="357.5" cy="57.5" r="1.5"/><circle cx="357.5" cy="62.5" r="1.5"/><circle cx="357.5" cy="67.5" r="1.5"/><circle cx="357.5" cy="72.5" r="1.5"/><circle cx="357.5" cy="77.5" r="1.5"/><circle cx="357.5" cy="82.5" r="1.5"/><circle cx="357.5" cy="87.5" r="1.5"/><circle cx="357.5" cy="92.5" r="1.5"/><circle cx="357.5" cy="97.5" r="1.5"/><circle cx="357.5" cy="102.5" r="1.5"/><circle cx="357.5" cy="107.5" r="1.5"/><circle cx="357.5" cy="112.5" r="1.5"/><circle cx="357.5" cy="117.5" r="1.5"/><circle cx="357.5" cy="122.5" r="1.5"/><circle cx="357.5" cy="127.5" r="1.5"/><circle cx="357.5" cy="132.5" r="1.5"/><circle cx="357.5" cy="137.5" r="1.5"/><circle cx="357.5" cy="142.5" r="1.5"/><circle cx="357.5" cy="147.5" r="1.5"/><circle cx="357.5" cy="152.5" r="1.5"/><circle cx="357.5" cy="157.5" r="1.5"/><circle cx="362.5" cy="7.5" r="1.5"/><circle cx="362.5" cy="12.5" r="1.5"/><circle cx="362.5" cy="17.5" r="1.5"/><circle cx="362.5" cy="42.5" r="1.5"/><circle cx="362.5" cy="47.5" r="1.5"/><circle cx="362.5" cy="52.5" r="1.5"/><circle cx="362.5" cy="57.5" r="1.5"/><circle cx="362.5" cy="62.5" r="1.5"/><circle cx="362.5" cy="67.5" r="1.5"/><circle cx="362.5" cy="72.5" r="1.5"/><circle cx="362.5" cy="77.5" r="1.5"/><circle cx="362.5" cy="82.5" r="1.5"/><circle cx="362.5" cy="87.5" r="1.5"/><circle cx="362.5" cy="92.5" r="1.5"/><circle cx="362.5" cy="97.5" r="1.5"/><circle cx="362.5" cy="102.5" r="1.5"/><circle cx="362.5" cy="107.5" r="1.5"/><circle cx="362.5" cy="112.5" r="1.5"/><circle cx="362.5" cy="117.5" r="1.5"/><circle cx="362.5" cy="122.5" r="1.5"/><circle cx="362.5" cy="127.5" r="1.5"/><circle cx="362.5" cy="132.5" r="1.5"/><circle cx="362.5" cy="137.5" r="1.5"/><circle cx="362.5" cy="142.5" r="1.5"/><circle cx="362.5" cy="152.5" r="1.5"/><circle cx="362.5" cy="157.5" r="1.5"/><circle cx="367.5" cy="12.5" r="1.5"/><circle cx="367.5" cy="17.5" r="1.5"/><circle cx="367.5" cy="37.5" r="1.5"/><circle cx="367.5" cy="42.5" r="1.5"/><circle cx="367.5" cy="47.5" r="1.5"/><circle cx="367.5" cy="52.5" r="1.5"/><circle cx="367.5" cy="57.5" r="1.5"/><circle cx="367.5" cy="62.5" r="1.5"/><circle cx="367.5" cy="67.5" r="1.5"/><circle cx="367.5" cy="72.5" r="1.5"/><circle cx="367.5" cy="77.5" r="1.5"/><circle cx="367.5" cy="82.5" r="1.5"/><circle cx="367.5" cy="87.5" r="1.5"/><circle cx="367.5" cy="92.5" r="1.5"/><circle cx="367.5" cy="97.5" r="1.5"/><circle cx="367.5" cy="102.5" r="1.5"/><circle cx="367.5" cy="107.5" r="1.5"/><circle cx="367.5" cy="112.5" r="1.5"/><circle cx="367.5" cy="117.5" r="1.5"/><circle cx="367.5" cy="122.5" r="1.5"/><circle cx="367.5" cy="127.5" r="1.5"/><circle cx="367.5" cy="132.5" r="1.5"/><circle cx="367.5" cy="137.5" r="1.5"/><circle cx="367.5" cy="142.5" r="1.5"/><circle cx="367.5" cy="147.5" r="1.5"/><circle cx="372.5" cy="17.5" r="1.5"/><circle cx="372.5" cy="32.5" r="1.5"/><circle cx="372.5" cy="37.5" r="1.5"/><circle cx="372.5" cy="42.5" r="1.5"/><circle cx="372.5" cy="47.5" r="1.5"/><circle cx="372.5" cy="52.5" r="1.5"/><circle cx="372.5" cy="57.5" r="1.5"/><circle cx="372.5" cy="62.5" r="1.5"/><circle cx="372.5" cy="67.5" r="1.5"/><circle cx="372.5" cy="72.5" r="1.5"/><circle cx="372.5" cy="77.5" r="1.5"/><circle cx="372.5" cy="82.5" r="1.5"/><circle cx="372.5" cy="87.5" r="1.5"/><circle cx="372.5" cy="92.5" r="1.5"/><circle cx="372.5" cy="97.5" r="1.5"/><circle cx="372.5" cy="102.5" r="1.5"/><circle cx="372.5" cy="107.5" r="1.5"/><circle cx="372.5" cy="112.5" r="1.5"/><circle cx="372.5" cy="117.5" r="1.5"/><circle cx="372.5" cy="122.5" r="1.5"/><circle cx="372.5" cy="127.5" r="1.5"/><circle cx="372.5" cy="132.5" r="1.5"/><circle cx="372.5" cy="137.5" r="1.5"/><circle cx="372.5" cy="142.5" r="1.5"/><circle cx="372.5" cy="147.5" r="1.5"/><circle cx="377.5" cy="17.5" r="1.5"/><circle cx="377.5" cy="22.5" r="1.5"/><circle cx="377.5" cy="27.5" r="1.5"/><circle cx="377.5" cy="32.5" r="1.5"/><circle cx="377.5" cy="37.5" r="1.5"/><circle cx="377.5" cy="42.5" r="1.5"/><circle cx="377.5" cy="47.5" r="1.5"/><circle cx="377.5" cy="52.5" r="1.5"/><circle cx="377.5" cy="57.5" r="1.5"/><circle cx="377.5" cy="62.5" r="1.5"/><circle cx="377.5" cy="67.5" r="1.5"/><circle cx="377.5" cy="72.5" r="1.5"/><circle cx="377.5" cy="77.5" r="1.5"/><circle cx="377.5" cy="82.5" r="1.5"/><circle cx="377.5" cy="87.5" r="1.5"/><circle cx="377.5" cy="92.5" r="1.5"/><circle cx="377.5" cy="97.5" r="1.5"/><circle cx="377.5" cy="102.5" r="1.5"/><circle cx="377.5" cy="107.5" r="1.5"/><circle cx="377.5" cy="112.5" r="1.5"/><circle cx="377.5" cy="117.5" r="1.5"/><circle cx="377.5" cy="122.5" r="1.5"/><circle cx="377.5" cy="127.5" r="1.5"/><circle cx="377.5" cy="132.5" r="1.5"/><circle cx="377.5" cy="137.5" r="1.5"/><circle cx="377.5" cy="142.5" r="1.5"/><circle cx="377.5" cy="147.5" r="1.5"/><circle cx="382.5" cy="17.5" r="1.5"/><circle cx="382.5" cy="22.5" r="1.5"/><circle cx="382.5" cy="27.5" r="1.5"/><circle cx="382.5" cy="32.5" r="1.5"/><circle cx="382.5" cy="37.5" r="1.5"/><circle cx="382.5" cy="42.5" r="1.5"/><circle cx="382.5" cy="47.5" r="1.5"/><circle cx="382.5" cy="52.5" r="1.5"/><circle cx="382.5" cy="57.5" r="1.5"/><circle cx="382.5" cy="62.5" r="1.5"/><circle cx="382.5" cy="67.5" r="1.5"/><circle cx="382.5" cy="72.5" r="1.5"/><circle cx="382.5" cy="77.5" r="1.5"/><circle cx="382.5" cy="82.5" r="1.5"/><circle cx="382.5" cy="87.5" r="1.5"/><circle cx="382.5" cy="92.5" r="1.5"/><circle cx="382.5" cy="97.5" r="1.5"/><circle cx="382.5" cy="102.5" r="1.5"/><circle cx="382.5" cy="107.5" r="1.5"/><circle cx="382.5" cy="112.5" r="1.5"/><circle cx="382.5" cy="117.5" r="1.5"/><circle cx="382.5" cy="122.5" r="1.5"/><circle cx="382.5" cy="127.5" r="1.5"/><circle cx="382.5" cy="132.5" r="1.5"/><circle cx="382.5" cy="137.5" r="1.5"/><circle cx="382.5" cy="142.5" r="1.5"/><circle cx="382.5" cy="147.5" r="1.5"/><circle cx="382.5" cy="152.5" r="1.5"/><circle cx="387.5" cy="22.5" r="1.5"/><circle cx="387.5" cy="27.5" r="1.5"/><circle cx="387.5" cy="32.5" r="1.5"/><circle cx="387.5" cy="37.5" r="1.5"/><circle cx="387.5" cy="42.5" r="1.5"/><circle cx="387.5" cy="47.5" r="1.5"/><circle cx="387.5" cy="52.5" r="1.5"/><circle cx="387.5" cy="57.5" r="1.5"/><circle cx="387.5" cy="62.5" r="1.5"/><circle cx="387.5" cy="67.5" r="1.5"/><circle cx="387.5" cy="72.5" r="1.5"/><circle cx="387.5" cy="77.5" r="1.5"/><circle cx="387.5" cy="82.5" r="1.5"/><circle cx="387.5" cy="87.5" r="1.5"/><circle cx="387.5" cy="92.5" r="1.5"/><circle cx="387.5" cy="97.5" r="1.5"/><circle cx="387.5" cy="102.5" r="1.5"/><circle cx="387.5" cy="107.5" r="1.5"/><circle cx="387.5" cy="112.5" r="1.5"/><circle cx="387.5" cy="117.5" r="1.5"/><circle cx="387.5" cy="122.5" r="1.5"/><circle cx="387.5" cy="127.5" r="1.5"/><circle cx="387.5" cy="132.5" r="1.5"/><circle cx="387.5" cy="137.5" r="1.5"/><circle cx="387.5" cy="142.5" r="1.5"/><circle cx="387.5" cy="147.5" r="1.5"/><circle cx="387.5" cy="152.5" r="1.5"/><circle cx="387.5" cy="157.5" r="1.5"/><circle cx="392.5" cy="22.5" r="1.5"/><circle cx="392.5" cy="27.5" r="1.5"/><circle cx="392.5" cy="32.5" r="1.5"/><circle cx="392.5" cy="37.5" r="1.5"/><circle cx="392.5" cy="42.5" r="1.5"/><circle cx="392.5" cy="47.5" r="1.5"/><circle cx="392.5" cy="52.5" r="1.5"/><circle cx="392.5" cy="57.5" r="1.5"/><circle cx="392.5" cy="62.5" r="1.5"/><circle cx="392.5" cy="67.5" r="1.5"/><circle cx="392.5" cy="72.5" r="1.5"/><circle cx="392.5" cy="77.5" r="1.5"/><circle cx="392.5" cy="82.5" r="1.5"/><circle cx="392.5" cy="87.5" r="1.5"/><circle cx="392.5" cy="92.5" r="1.5"/><circle cx="392.5" cy="97.5" r="1.5"/><circle cx="392.5" cy="102.5" r="1.5"/><circle cx="392.5" cy="107.5" r="1.5"/><circle cx="392.5" cy="112.5" r="1.5"/><circle cx="392.5" cy="117.5" r="1.5"/><circle cx="392.5" cy="122.5" r="1.5"/><circle cx="392.5" cy="127.5" r="1.5"/><circle cx="392.5" cy="132.5" r="1.5"/><circle cx="392.5" cy="137.5" r="1.5"/><circle cx="392.5" cy="142.5" r="1.5"/><circle cx="392.5" cy="147.5" r="1.5"/><circle cx="392.5" cy="152.5" r="1.5"/><circle cx="392.5" cy="157.5" r="1.5"/><circle cx="392.5" cy="162.5" r="1.5"/><circle cx="392.5" cy="167.5" r="1.5"/><circle cx="397.5" cy="22.5" r="1.5"/><circle cx="397.5" cy="27.5" r="1.5"/><circle cx="397.5" cy="32.5" r="1.5"/><circle cx="397.5" cy="37.5" r="1.5"/><circle cx="397.5" cy="42.5" r="1.5"/><circle cx="397.5" cy="47.5" r="1.5"/><circle cx="397.5" cy="52.5" r="1.5"/><circle cx="397.5" cy="57.5" r="1.5"/><circle cx="397.5" cy="62.5" r="1.5"/><circle cx="397.5" cy="67.5" r="1.5"/><circle cx="397.5" cy="72.5" r="1.5"/><circle cx="397.5" cy="77.5" r="1.5"/><circle cx="397.5" cy="82.5" r="1.5"/><circle cx="397.5" cy="87.5" r="1.5"/><circle cx="397.5" cy="92.5" r="1.5"/><circle cx="397.5" cy="97.5" r="1.5"/><circle cx="397.5" cy="102.5" r="1.5"/><circle cx="397.5" cy="107.5" r="1.5"/><circle cx="397.5" cy="112.5" r="1.5"/><circle cx="397.5" cy="117.5" r="1.5"/><circle cx="397.5" cy="122.5" r="1.5"/><circle cx="397.5" cy="127.5" r="1.5"/><circle cx="397.5" cy="132.5" r="1.5"/><circle cx="397.5" cy="137.5" r="1.5"/><circle cx="397.5" cy="142.5" r="1.5"/><circle cx="397.5" cy="147.5" r="1.5"/><circle cx="397.5" cy="152.5" r="1.5"/><circle cx="397.5" cy="157.5" r="1.5"/><circle cx="397.5" cy="162.5" r="1.5"/><circle cx="397.5" cy="167.5" r="1.5"/><circle cx="397.5" cy="172.5" r="1.5"/><circle cx="402.5" cy="27.5" r="1.5"/><circle cx="402.5" cy="32.5" r="1.5"/><circle cx="402.5" cy="37.5" r="1.5"/><circle cx="402.5" cy="42.5" r="1.5"/><circle cx="402.5" cy="47.5" r="1.5"/><circle cx="402.5" cy="52.5" r="1.5"/><circle cx="402.5" cy="57.5" r="1.5"/><circle cx="402.5" cy="62.5" r="1.5"/><circle cx="402.5" cy="67.5" r="1.5"/><circle cx="402.5" cy="72.5" r="1.5"/><circle cx="402.5" cy="77.5" r="1.5"/><circle cx="402.5" cy="82.5" r="1.5"/><circle cx="402.5" cy="87.5" r="1.5"/><circle cx="402.5" cy="92.5" r="1.5"/><circle cx="402.5" cy="97.5" r="1.5"/><circle cx="402.5" cy="102.5" r="1.5"/><circle cx="402.5" cy="107.5" r="1.5"/><circle cx="402.5" cy="112.5" r="1.5"/><circle cx="402.5" cy="117.5" r="1.5"/><circle cx="402.5" cy="122.5" r="1.5"/><circle cx="402.5" cy="127.5" r="1.5"/><circle cx="402.5" cy="132.5" r="1.5"/><circle cx="402.5" cy="137.5" r="1.5"/><circle cx="402.5" cy="142.5" r="1.5"/><circle cx="402.5" cy="147.5" r="1.5"/><circle cx="402.5" cy="152.5" r="1.5"/><circle cx="402.5" cy="157.5" r="1.5"/><circle cx="402.5" cy="162.5" r="1.5"/><circle cx="402.5" cy="167.5" r="1.5"/><circle cx="402.5" cy="172.5" r="1.5"/><circle cx="402.5" cy="177.5" r="1.5"/><circle cx="407.5" cy="37.5" r="1.5"/><circle cx="407.5" cy="42.5" r="1.5"/><circle cx="407.5" cy="47.5" r="1.5"/><circle cx="407.5" cy="52.5" r="1.5"/><circle cx="407.5" cy="57.5" r="1.5"/><circle cx="407.5" cy="62.5" r="1.5"/><circle cx="407.5" cy="67.5" r="1.5"/><circle cx="407.5" cy="72.5" r="1.5"/><circle cx="407.5" cy="77.5" r="1.5"/><circle cx="407.5" cy="82.5" r="1.5"/><circle cx="407.5" cy="87.5" r="1.5"/><circle cx="407.5" cy="92.5" r="1.5"/><circle cx="407.5" cy="97.5" r="1.5"/><circle cx="407.5" cy="102.5" r="1.5"/><circle cx="407.5" cy="107.5" r="1.5"/><circle cx="407.5" cy="112.5" r="1.5"/><circle cx="407.5" cy="117.5" r="1.5"/><circle cx="407.5" cy="122.5" r="1.5"/><circle cx="407.5" cy="127.5" r="1.5"/><circle cx="407.5" cy="132.5" r="1.5"/><circle cx="407.5" cy="137.5" r="1.5"/><circle cx="407.5" cy="142.5" r="1.5"/><circle cx="407.5" cy="147.5" r="1.5"/><circle cx="407.5" cy="152.5" r="1.5"/><circle cx="407.5" cy="157.5" r="1.5"/><circle cx="412.5" cy="37.5" r="1.5"/><circle cx="412.5" cy="42.5" r="1.5"/><circle cx="412.5" cy="47.5" r="1.5"/><circle cx="412.5" cy="52.5" r="1.5"/><circle cx="412.5" cy="57.5" r="1.5"/><circle cx="412.5" cy="62.5" r="1.5"/><circle cx="412.5" cy="67.5" r="1.5"/><circle cx="412.5" cy="72.5" r="1.5"/><circle cx="412.5" cy="77.5" r="1.5"/><circle cx="412.5" cy="82.5" r="1.5"/><circle cx="412.5" cy="87.5" r="1.5"/><circle cx="412.5" cy="92.5" r="1.5"/><circle cx="412.5" cy="97.5" r="1.5"/><circle cx="412.5" cy="102.5" r="1.5"/><circle cx="412.5" cy="107.5" r="1.5"/><circle cx="412.5" cy="112.5" r="1.5"/><circle cx="412.5" cy="117.5" r="1.5"/><circle cx="412.5" cy="122.5" r="1.5"/><circle cx="412.5" cy="127.5" r="1.5"/><circle cx="412.5" cy="132.5" r="1.5"/><circle cx="412.5" cy="137.5" r="1.5"/><circle cx="412.5" cy="142.5" r="1.5"/><circle cx="412.5" cy="147.5" r="1.5"/><circle cx="412.5" cy="152.5" r="1.5"/><circle cx="417.5" cy="32.5" r="1.5"/><circle cx="417.5" cy="37.5" r="1.5"/><circle cx="417.5" cy="42.5" r="1.5"/><circle cx="417.5" cy="47.5" r="1.5"/><circle cx="417.5" cy="52.5" r="1.5"/><circle cx="417.5" cy="57.5" r="1.5"/><circle cx="417.5" cy="62.5" r="1.5"/><circle cx="417.5" cy="67.5" r="1.5"/><circle cx="417.5" cy="72.5" r="1.5"/><circle cx="417.5" cy="77.5" r="1.5"/><circle cx="417.5" cy="82.5" r="1.5"/><circle cx="417.5" cy="87.5" r="1.5"/><circle cx="417.5" cy="92.5" r="1.5"/><circle cx="417.5" cy="97.5" r="1.5"/><circle cx="417.5" cy="102.5" r="1.5"/><circle cx="417.5" cy="107.5" r="1.5"/><circle cx="417.5" cy="112.5" r="1.5"/><circle cx="417.5" cy="117.5" r="1.5"/><circle cx="417.5" cy="122.5" r="1.5"/><circle cx="417.5" cy="127.5" r="1.5"/><circle cx="417.5" cy="132.5" r="1.5"/><circle cx="417.5" cy="137.5" r="1.5"/><circle cx="417.5" cy="142.5" r="1.5"/><circle cx="417.5" cy="147.5" r="1.5"/><circle cx="417.5" cy="152.5" r="1.5"/><circle cx="422.5" cy="32.5" r="1.5"/><circle cx="422.5" cy="37.5" r="1.5"/><circle cx="422.5" cy="42.5" r="1.5"/><circle cx="422.5" cy="47.5" r="1.5"/><circle cx="422.5" cy="52.5" r="1.5"/><circle cx="422.5" cy="57.5" r="1.5"/><circle cx="422.5" cy="62.5" r="1.5"/><circle cx="422.5" cy="67.5" r="1.5"/><circle cx="422.5" cy="72.5" r="1.5"/><circle cx="422.5" cy="77.5" r="1.5"/><circle cx="422.5" cy="82.5" r="1.5"/><circle cx="422.5" cy="87.5" r="1.5"/><circle cx="422.5" cy="92.5" r="1.5"/><circle cx="422.5" cy="97.5" r="1.5"/><circle cx="422.5" cy="102.5" r="1.5"/><circle cx="422.5" cy="107.5" r="1.5"/><circle cx="422.5" cy="112.5" r="1.5"/><circle cx="422.5" cy="117.5" r="1.5"/><circle cx="422.5" cy="122.5" r="1.5"/><circle cx="422.5" cy="127.5" r="1.5"/><circle cx="422.5" cy="132.5" r="1.5"/><circle cx="422.5" cy="137.5" r="1.5"/><circle cx="422.5" cy="142.5" r="1.5"/><circle cx="422.5" cy="147.5" r="1.5"/><circle cx="422.5" cy="152.5" r="1.5"/><circle cx="422.5" cy="157.5" r="1.5"/><circle cx="422.5" cy="162.5" r="1.5"/><circle cx="427.5" cy="17.5" r="1.5"/><circle cx="427.5" cy="32.5" r="1.5"/><circle cx="427.5" cy="37.5" r="1.5"/><circle cx="427.5" cy="42.5" r="1.5"/><circle cx="427.5" cy="47.5" r="1.5"/><circle cx="427.5" cy="52.5" r="1.5"/><circle cx="427.5" cy="57.5" r="1.5"/><circle cx="427.5" cy="62.5" r="1.5"/><circle cx="427.5" cy="67.5" r="1.5"/><circle cx="427.5" cy="72.5" r="1.5"/><circle cx="427.5" cy="77.5" r="1.5"/><circle cx="427.5" cy="82.5" r="1.5"/><circle cx="427.5" cy="87.5" r="1.5"/><circle cx="427.5" cy="92.5" r="1.5"/><circle cx="427.5" cy="97.5" r="1.5"/><circle cx="427.5" cy="102.5" r="1.5"/><circle cx="427.5" cy="107.5" r="1.5"/><circle cx="427.5" cy="112.5" r="1.5"/><circle cx="427.5" cy="117.5" r="1.5"/><circle cx="427.5" cy="122.5" r="1.5"/><circle cx="427.5" cy="127.5" r="1.5"/><circle cx="427.5" cy="132.5" r="1.5"/><circle cx="427.5" cy="137.5" r="1.5"/><circle cx="427.5" cy="142.5" r="1.5"/><circle cx="427.5" cy="147.5" r="1.5"/><circle cx="427.5" cy="152.5" r="1.5"/><circle cx="427.5" cy="157.5" r="1.5"/><circle cx="427.5" cy="162.5" r="1.5"/><circle cx="427.5" cy="177.5" r="1.5"/><circle cx="432.5" cy="17.5" r="1.5"/><circle cx="432.5" cy="22.5" r="1.5"/><circle cx="432.5" cy="37.5" r="1.5"/><circle cx="432.5" cy="42.5" r="1.5"/><circle cx="432.5" cy="47.5" r="1.5"/><circle cx="432.5" cy="52.5" r="1.5"/><circle cx="432.5" cy="57.5" r="1.5"/><circle cx="432.5" cy="62.5" r="1.5"/><circle cx="432.5" cy="67.5" r="1.5"/><circle cx="432.5" cy="72.5" r="1.5"/><circle cx="432.5" cy="77.5" r="1.5"/><circle cx="432.5" cy="82.5" r="1.5"/><circle cx="432.5" cy="87.5" r="1.5"/><circle cx="432.5" cy="92.5" r="1.5"/><circle cx="432.5" cy="97.5" r="1.5"/><circle cx="432.5" cy="102.5" r="1.5"/><circle cx="432.5" cy="107.5" r="1.5"/><circle cx="432.5" cy="112.5" r="1.5"/><circle cx="432.5" cy="117.5" r="1.5"/><circle cx="432.5" cy="122.5" r="1.5"/><circle cx="432.5" cy="127.5" r="1.5"/><circle cx="432.5" cy="132.5" r="1.5"/><circle cx="432.5" cy="137.5" r="1.5"/><circle cx="432.5" cy="142.5" r="1.5"/><circle cx="432.5" cy="147.5" r="1.5"/><circle cx="432.5" cy="152.5" r="1.5"/><circle cx="432.5" cy="157.5" r="1.5"/><circle cx="432.5" cy="162.5" r="1.5"/><circle cx="432.5" cy="167.5" r="1.5"/><circle cx="432.5" cy="172.5" r="1.5"/><circle cx="432.5" cy="182.5" r="1.5"/><circle cx="437.5" cy="17.5" r="1.5"/><circle cx="437.5" cy="22.5" r="1.5"/><circle cx="437.5" cy="32.5" r="1.5"/><circle cx="437.5" cy="37.5" r="1.5"/><circle cx="437.5" cy="42.5" r="1.5"/><circle cx="437.5" cy="47.5" r="1.5"/><circle cx="437.5" cy="52.5" r="1.5"/><circle cx="437.5" cy="57.5" r="1.5"/><circle cx="437.5" cy="62.5" r="1.5"/><circle cx="437.5" cy="67.5" r="1.5"/><circle cx="437.5" cy="72.5" r="1.5"/><circle cx="437.5" cy="77.5" r="1.5"/><circle cx="437.5" cy="82.5" r="1.5"/><circle cx="437.5" cy="87.5" r="1.5"/><circle cx="437.5" cy="92.5" r="1.5"/><circle cx="437.5" cy="97.5" r="1.5"/><circle cx="437.5" cy="102.5" r="1.5"/><circle cx="437.5" cy="107.5" r="1.5"/><circle cx="437.5" cy="112.5" r="1.5"/><circle cx="437.5" cy="117.5" r="1.5"/><circle cx="437.5" cy="122.5" r="1.5"/><circle cx="437.5" cy="127.5" r="1.5"/><circle cx="437.5" cy="132.5" r="1.5"/><circle cx="437.5" cy="137.5" r="1.5"/><circle cx="437.5" cy="142.5" r="1.5"/><circle cx="437.5" cy="147.5" r="1.5"/><circle cx="437.5" cy="152.5" r="1.5"/><circle cx="437.5" cy="157.5" r="1.5"/><circle cx="437.5" cy="162.5" r="1.5"/><circle cx="437.5" cy="172.5" r="1.5"/><circle cx="437.5" cy="177.5" r="1.5"/><circle cx="437.5" cy="182.5" r="1.5"/><circle cx="437.5" cy="187.5" r="1.5"/><circle cx="442.5" cy="17.5" r="1.5"/><circle cx="442.5" cy="22.5" r="1.5"/><circle cx="442.5" cy="27.5" r="1.5"/><circle cx="442.5" cy="32.5" r="1.5"/><circle cx="442.5" cy="37.5" r="1.5"/><circle cx="442.5" cy="42.5" r="1.5"/><circle cx="442.5" cy="47.5" r="1.5"/><circle cx="442.5" cy="52.5" r="1.5"/><circle cx="442.5" cy="57.5" r="1.5"/><circle cx="442.5" cy="62.5" r="1.5"/><circle cx="442.5" cy="67.5" r="1.5"/><circle cx="442.5" cy="72.5" r="1.5"/><circle cx="442.5" cy="77.5" r="1.5"/><circle cx="442.5" cy="82.5" r="1.5"/><circle cx="442.5" cy="87.5" r="1.5"/><circle cx="442.5" cy="92.5" r="1.5"/><circle cx="442.5" cy="97.5" r="1.5"/><circle cx="442.5" cy="102.5" r="1.5"/><circle cx="442.5" cy="107.5" r="1.5"/><circle cx="442.5" cy="112.5" r="1.5"/><circle cx="442.5" cy="117.5" r="1.5"/><circle cx="442.5" cy="122.5" r="1.5"/><circle cx="442.5" cy="127.5" r="1.5"/><circle cx="442.5" cy="132.5" r="1.5"/><circle cx="442.5" cy="137.5" r="1.5"/><circle cx="442.5" cy="142.5" r="1.5"/><circle cx="442.5" cy="147.5" r="1.5"/><circle cx="442.5" cy="152.5" r="1.5"/><circle cx="442.5" cy="157.5" r="1.5"/><circle cx="442.5" cy="162.5" r="1.5"/><circle cx="442.5" cy="167.5" r="1.5"/><circle cx="442.5" cy="177.5" r="1.5"/><circle cx="442.5" cy="182.5" r="1.5"/><circle cx="442.5" cy="187.5" r="1.5"/><circle cx="442.5" cy="192.5" r="1.5"/><circle cx="447.5" cy="17.5" r="1.5"/><circle cx="447.5" cy="27.5" r="1.5"/><circle cx="447.5" cy="32.5" r="1.5"/><circle cx="447.5" cy="37.5" r="1.5"/><circle cx="447.5" cy="42.5" r="1.5"/><circle cx="447.5" cy="47.5" r="1.5"/><circle cx="447.5" cy="52.5" r="1.5"/><circle cx="447.5" cy="57.5" r="1.5"/><circle cx="447.5" cy="62.5" r="1.5"/><circle cx="447.5" cy="67.5" r="1.5"/><circle cx="447.5" cy="72.5" r="1.5"/><circle cx="447.5" cy="77.5" r="1.5"/><circle cx="447.5" cy="82.5" r="1.5"/><circle cx="447.5" cy="87.5" r="1.5"/><circle cx="447.5" cy="92.5" r="1.5"/><circle cx="447.5" cy="97.5" r="1.5"/><circle cx="447.5" cy="102.5" r="1.5"/><circle cx="447.5" cy="107.5" r="1.5"/><circle cx="447.5" cy="112.5" r="1.5"/><circle cx="447.5" cy="117.5" r="1.5"/><circle cx="447.5" cy="122.5" r="1.5"/><circle cx="447.5" cy="127.5" r="1.5"/><circle cx="447.5" cy="132.5" r="1.5"/><circle cx="447.5" cy="137.5" r="1.5"/><circle cx="447.5" cy="142.5" r="1.5"/><circle cx="447.5" cy="147.5" r="1.5"/><circle cx="447.5" cy="152.5" r="1.5"/><circle cx="447.5" cy="162.5" r="1.5"/><circle cx="447.5" cy="167.5" r="1.5"/><circle cx="447.5" cy="192.5" r="1.5"/><circle cx="447.5" cy="197.5" r="1.5"/><circle cx="452.5" cy="27.5" r="1.5"/><circle cx="452.5" cy="32.5" r="1.5"/><circle cx="452.5" cy="37.5" r="1.5"/><circle cx="452.5" cy="42.5" r="1.5"/><circle cx="452.5" cy="47.5" r="1.5"/><circle cx="452.5" cy="52.5" r="1.5"/><circle cx="452.5" cy="57.5" r="1.5"/><circle cx="452.5" cy="62.5" r="1.5"/><circle cx="452.5" cy="67.5" r="1.5"/><circle cx="452.5" cy="72.5" r="1.5"/><circle cx="452.5" cy="77.5" r="1.5"/><circle cx="452.5" cy="82.5" r="1.5"/><circle cx="452.5" cy="87.5" r="1.5"/><circle cx="452.5" cy="92.5" r="1.5"/><circle cx="452.5" cy="97.5" r="1.5"/><circle cx="452.5" cy="102.5" r="1.5"/><circle cx="452.5" cy="107.5" r="1.5"/><circle cx="452.5" cy="112.5" r="1.5"/><circle cx="452.5" cy="117.5" r="1.5"/><circle cx="452.5" cy="122.5" r="1.5"/><circle cx="452.5" cy="127.5" r="1.5"/><circle cx="452.5" cy="132.5" r="1.5"/><circle cx="452.5" cy="137.5" r="1.5"/><circle cx="452.5" cy="142.5" r="1.5"/><circle cx="452.5" cy="147.5" r="1.5"/><circle cx="452.5" cy="152.5" r="1.5"/><circle cx="452.5" cy="157.5" r="1.5"/><circle cx="452.5" cy="187.5" r="1.5"/><circle cx="452.5" cy="197.5" r="1.5"/><circle cx="452.5" cy="222.5" r="1.5"/><circle cx="452.5" cy="227.5" r="1.5"/><circle cx="452.5" cy="237.5" r="1.5"/><circle cx="457.5" cy="27.5" r="1.5"/><circle cx="457.5" cy="32.5" r="1.5"/><circle cx="457.5" cy="37.5" r="1.5"/><circle cx="457.5" cy="42.5" r="1.5"/><circle cx="457.5" cy="47.5" r="1.5"/><circle cx="457.5" cy="52.5" r="1.5"/><circle cx="457.5" cy="57.5" r="1.5"/><circle cx="457.5" cy="62.5" r="1.5"/><circle cx="457.5" cy="67.5" r="1.5"/><circle cx="457.5" cy="72.5" r="1.5"/><circle cx="457.5" cy="77.5" r="1.5"/><circle cx="457.5" cy="82.5" r="1.5"/><circle cx="457.5" cy="87.5" r="1.5"/><circle cx="457.5" cy="92.5" r="1.5"/><circle cx="457.5" cy="97.5" r="1.5"/><circle cx="457.5" cy="102.5" r="1.5"/><circle cx="457.5" cy="107.5" r="1.5"/><circle cx="457.5" cy="112.5" r="1.5"/><circle cx="457.5" cy="117.5" r="1.5"/><circle cx="457.5" cy="122.5" r="1.5"/><circle cx="457.5" cy="127.5" r="1.5"/><circle cx="457.5" cy="132.5" r="1.5"/><circle cx="457.5" cy="137.5" r="1.5"/><circle cx="457.5" cy="142.5" r="1.5"/><circle cx="457.5" cy="147.5" r="1.5"/><circle cx="457.5" cy="152.5" r="1.5"/><circle cx="457.5" cy="182.5" r="1.5"/><circle cx="457.5" cy="187.5" r="1.5"/><circle cx="457.5" cy="197.5" r="1.5"/><circle cx="457.5" cy="217.5" r="1.5"/><circle cx="457.5" cy="222.5" r="1.5"/><circle cx="457.5" cy="227.5" r="1.5"/><circle cx="457.5" cy="232.5" r="1.5"/><circle cx="457.5" cy="237.5" r="1.5"/><circle cx="457.5" cy="242.5" r="1.5"/><circle cx="462.5" cy="27.5" r="1.5"/><circle cx="462.5" cy="32.5" r="1.5"/><circle cx="462.5" cy="37.5" r="1.5"/><circle cx="462.5" cy="42.5" r="1.5"/><circle cx="462.5" cy="47.5" r="1.5"/><circle cx="462.5" cy="52.5" r="1.5"/><circle cx="462.5" cy="57.5" r="1.5"/><circle cx="462.5" cy="62.5" r="1.5"/><circle cx="462.5" cy="67.5" r="1.5"/><circle cx="462.5" cy="72.5" r="1.5"/><circle cx="462.5" cy="77.5" r="1.5"/><circle cx="462.5" cy="82.5" r="1.5"/><circle cx="462.5" cy="87.5" r="1.5"/><circle cx="462.5" cy="92.5" r="1.5"/><circle cx="462.5" cy="97.5" r="1.5"/><circle cx="462.5" cy="102.5" r="1.5"/><circle cx="462.5" cy="107.5" r="1.5"/><circle cx="462.5" cy="112.5" r="1.5"/><circle cx="462.5" cy="117.5" r="1.5"/><circle cx="462.5" cy="122.5" r="1.5"/><circle cx="462.5" cy="127.5" r="1.5"/><circle cx="462.5" cy="132.5" r="1.5"/><circle cx="462.5" cy="137.5" r="1.5"/><circle cx="462.5" cy="142.5" r="1.5"/><circle cx="462.5" cy="177.5" r="1.5"/><circle cx="462.5" cy="182.5" r="1.5"/><circle cx="462.5" cy="187.5" r="1.5"/><circle cx="462.5" cy="197.5" r="1.5"/><circle cx="462.5" cy="217.5" r="1.5"/><circle cx="462.5" cy="222.5" r="1.5"/><circle cx="462.5" cy="227.5" r="1.5"/><circle cx="462.5" cy="232.5" r="1.5"/><circle cx="462.5" cy="237.5" r="1.5"/><circle cx="467.5" cy="27.5" r="1.5"/><circle cx="467.5" cy="32.5" r="1.5"/><circle cx="467.5" cy="37.5" r="1.5"/><circle cx="467.5" cy="42.5" r="1.5"/><circle cx="467.5" cy="47.5" r="1.5"/><circle cx="467.5" cy="52.5" r="1.5"/><circle cx="467.5" cy="57.5" r="1.5"/><circle cx="467.5" cy="62.5" r="1.5"/><circle cx="467.5" cy="67.5" r="1.5"/><circle cx="467.5" cy="72.5" r="1.5"/><circle cx="467.5" cy="77.5" r="1.5"/><circle cx="467.5" cy="82.5" r="1.5"/><circle cx="467.5" cy="87.5" r="1.5"/><circle cx="467.5" cy="92.5" r="1.5"/><circle cx="467.5" cy="97.5" r="1.5"/><circle cx="467.5" cy="102.5" r="1.5"/><circle cx="467.5" cy="107.5" r="1.5"/><circle cx="467.5" cy="112.5" r="1.5"/><circle cx="467.5" cy="117.5" r="1.5"/><circle cx="467.5" cy="122.5" r="1.5"/><circle cx="467.5" cy="132.5" r="1.5"/><circle cx="467.5" cy="137.5" r="1.5"/><circle cx="467.5" cy="147.5" r="1.5"/><circle cx="467.5" cy="152.5" r="1.5"/><circle cx="467.5" cy="162.5" r="1.5"/><circle cx="467.5" cy="167.5" r="1.5"/><circle cx="467.5" cy="172.5" r="1.5"/><circle cx="467.5" cy="182.5" r="1.5"/><circle cx="467.5" cy="187.5" r="1.5"/><circle cx="467.5" cy="192.5" r="1.5"/><circle cx="467.5" cy="197.5" r="1.5"/><circle cx="467.5" cy="212.5" r="1.5"/><circle cx="467.5" cy="217.5" r="1.5"/><circle cx="467.5" cy="222.5" r="1.5"/><circle cx="467.5" cy="227.5" r="1.5"/><circle cx="467.5" cy="232.5" r="1.5"/><circle cx="467.5" cy="237.5" r="1.5"/><circle cx="472.5" cy="27.5" r="1.5"/><circle cx="472.5" cy="32.5" r="1.5"/><circle cx="472.5" cy="37.5" r="1.5"/><circle cx="472.5" cy="42.5" r="1.5"/><circle cx="472.5" cy="47.5" r="1.5"/><circle cx="472.5" cy="52.5" r="1.5"/><circle cx="472.5" cy="57.5" r="1.5"/><circle cx="472.5" cy="62.5" r="1.5"/><circle cx="472.5" cy="67.5" r="1.5"/><circle cx="472.5" cy="72.5" r="1.5"/><circle cx="472.5" cy="77.5" r="1.5"/><circle cx="472.5" cy="82.5" r="1.5"/><circle cx="472.5" cy="87.5" r="1.5"/><circle cx="472.5" cy="92.5" r="1.5"/><circle cx="472.5" cy="97.5" r="1.5"/><circle cx="472.5" cy="102.5" r="1.5"/><circle cx="472.5" cy="107.5" r="1.5"/><circle cx="472.5" cy="112.5" r="1.5"/><circle cx="472.5" cy="117.5" r="1.5"/><circle cx="472.5" cy="122.5" r="1.5"/><circle cx="472.5" cy="127.5" r="1.5"/><circle cx="472.5" cy="142.5" r="1.5"/><circle cx="472.5" cy="147.5" r="1.5"/><circle cx="472.5" cy="157.5" r="1.5"/><circle cx="472.5" cy="162.5" r="1.5"/><circle cx="472.5" cy="167.5" r="1.5"/><circle cx="472.5" cy="172.5" r="1.5"/><circle cx="472.5" cy="182.5" r="1.5"/><circle cx="472.5" cy="187.5" r="1.5"/><circle cx="472.5" cy="192.5" r="1.5"/><circle cx="472.5" cy="197.5" r="1.5"/><circle cx="472.5" cy="212.5" r="1.5"/><circle cx="472.5" cy="217.5" r="1.5"/><circle cx="472.5" cy="222.5" r="1.5"/><circle cx="472.5" cy="227.5" r="1.5"/><circle cx="472.5" cy="232.5" r="1.5"/><circle cx="472.5" cy="237.5" r="1.5"/><circle cx="477.5" cy="32.5" r="1.5"/><circle cx="477.5" cy="37.5" r="1.5"/><circle cx="477.5" cy="42.5" r="1.5"/><circle cx="477.5" cy="47.5" r="1.5"/><circle cx="477.5" cy="52.5" r="1.5"/><circle cx="477.5" cy="57.5" r="1.5"/><circle cx="477.5" cy="62.5" r="1.5"/><circle cx="477.5" cy="67.5" r="1.5"/><circle cx="477.5" cy="72.5" r="1.5"/><circle cx="477.5" cy="82.5" r="1.5"/><circle cx="477.5" cy="87.5" r="1.5"/><circle cx="477.5" cy="92.5" r="1.5"/><circle cx="477.5" cy="97.5" r="1.5"/><circle cx="477.5" cy="102.5" r="1.5"/><circle cx="477.5" cy="107.5" r="1.5"/><circle cx="477.5" cy="112.5" r="1.5"/><circle cx="477.5" cy="122.5" r="1.5"/><circle cx="477.5" cy="127.5" r="1.5"/><circle cx="477.5" cy="167.5" r="1.5"/><circle cx="477.5" cy="172.5" r="1.5"/><circle cx="477.5" cy="177.5" r="1.5"/><circle cx="477.5" cy="187.5" r="1.5"/><circle cx="477.5" cy="197.5" r="1.5"/><circle cx="477.5" cy="207.5" r="1.5"/><circle cx="477.5" cy="212.5" r="1.5"/><circle cx="477.5" cy="217.5" r="1.5"/><circle cx="477.5" cy="222.5" r="1.5"/><circle cx="477.5" cy="227.5" r="1.5"/><circle cx="477.5" cy="232.5" r="1.5"/><circle cx="477.5" cy="237.5" r="1.5"/><circle cx="482.5" cy="32.5" r="1.5"/><circle cx="482.5" cy="37.5" r="1.5"/><circle cx="482.5" cy="42.5" r="1.5"/><circle cx="482.5" cy="47.5" r="1.5"/><circle cx="482.5" cy="52.5" r="1.5"/><circle cx="482.5" cy="57.5" r="1.5"/><circle cx="482.5" cy="62.5" r="1.5"/><circle cx="482.5" cy="67.5" r="1.5"/><circle cx="482.5" cy="82.5" r="1.5"/><circle cx="482.5" cy="87.5" r="1.5"/><circle cx="482.5" cy="92.5" r="1.5"/><circle cx="482.5" cy="97.5" r="1.5"/><circle cx="482.5" cy="102.5" r="1.5"/><circle cx="482.5" cy="107.5" r="1.5"/><circle cx="482.5" cy="127.5" r="1.5"/><circle cx="482.5" cy="132.5" r="1.5"/><circle cx="482.5" cy="172.5" r="1.5"/><circle cx="482.5" cy="182.5" r="1.5"/><circle cx="482.5" cy="187.5" r="1.5"/><circle cx="482.5" cy="197.5" r="1.5"/><circle cx="482.5" cy="207.5" r="1.5"/><circle cx="482.5" cy="212.5" r="1.5"/><circle cx="482.5" cy="217.5" r="1.5"/><circle cx="482.5" cy="222.5" r="1.5"/><circle cx="482.5" cy="227.5" r="1.5"/><circle cx="482.5" cy="232.5" r="1.5"/><circle cx="482.5" cy="237.5" r="1.5"/><circle cx="487.5" cy="27.5" r="1.5"/><circle cx="487.5" cy="32.5" r="1.5"/><circle cx="487.5" cy="37.5" r="1.5"/><circle cx="487.5" cy="42.5" r="1.5"/><circle cx="487.5" cy="47.5" r="1.5"/><circle cx="487.5" cy="52.5" r="1.5"/><circle cx="487.5" cy="57.5" r="1.5"/><circle cx="487.5" cy="62.5" r="1.5"/><circle cx="487.5" cy="67.5" r="1.5"/><circle cx="487.5" cy="82.5" r="1.5"/><circle cx="487.5" cy="87.5" r="1.5"/><circle cx="487.5" cy="92.5" r="1.5"/><circle cx="487.5" cy="97.5" r="1.5"/><circle cx="487.5" cy="102.5" r="1.5"/><circle cx="487.5" cy="127.5" r="1.5"/><circle cx="487.5" cy="132.5" r="1.5"/><circle cx="487.5" cy="187.5" r="1.5"/><circle cx="487.5" cy="202.5" r="1.5"/><circle cx="487.5" cy="207.5" r="1.5"/><circle cx="487.5" cy="212.5" r="1.5"/><circle cx="487.5" cy="217.5" r="1.5"/><circle cx="487.5" cy="222.5" r="1.5"/><circle cx="487.5" cy="227.5" r="1.5"/><circle cx="487.5" cy="232.5" r="1.5"/><circle cx="487.5" cy="237.5" r="1.5"/><circle cx="492.5" cy="27.5" r="1.5"/><circle cx="492.5" cy="32.5" r="1.5"/><circle cx="492.5" cy="37.5" r="1.5"/><circle cx="492.5" cy="42.5" r="1.5"/><circle cx="492.5" cy="47.5" r="1.5"/><circle cx="492.5" cy="52.5" r="1.5"/><circle cx="492.5" cy="57.5" r="1.5"/><circle cx="492.5" cy="62.5" r="1.5"/><circle cx="492.5" cy="67.5" r="1.5"/><circle cx="492.5" cy="92.5" r="1.5"/><circle cx="492.5" cy="97.5" r="1.5"/><circle cx="492.5" cy="102.5" r="1.5"/><circle cx="492.5" cy="107.5" r="1.5"/><circle cx="492.5" cy="112.5" r="1.5"/><circle cx="492.5" cy="117.5" r="1.5"/><circle cx="492.5" cy="122.5" r="1.5"/><circle cx="492.5" cy="127.5" r="1.5"/><circle cx="492.5" cy="187.5" r="1.5"/><circle cx="492.5" cy="192.5" r="1.5"/><circle cx="492.5" cy="202.5" r="1.5"/><circle cx="492.5" cy="207.5" r="1.5"/><circle cx="492.5" cy="212.5" r="1.5"/><circle cx="492.5" cy="217.5" r="1.5"/><circle cx="492.5" cy="222.5" r="1.5"/><circle cx="492.5" cy="227.5" r="1.5"/><circle cx="492.5" cy="232.5" r="1.5"/><circle cx="492.5" cy="237.5" r="1.5"/><circle cx="492.5" cy="242.5" r="1.5"/><circle cx="497.5" cy="27.5" r="1.5"/><circle cx="497.5" cy="32.5" r="1.5"/><circle cx="497.5" cy="37.5" r="1.5"/><circle cx="497.5" cy="42.5" r="1.5"/><circle cx="497.5" cy="47.5" r="1.5"/><circle cx="497.5" cy="52.5" r="1.5"/><circle cx="497.5" cy="57.5" r="1.5"/><circle cx="497.5" cy="107.5" r="1.5"/><circle cx="497.5" cy="117.5" r="1.5"/><circle cx="497.5" cy="122.5" r="1.5"/><circle cx="497.5" cy="127.5" r="1.5"/><circle cx="497.5" cy="187.5" r="1.5"/><circle cx="497.5" cy="192.5" r="1.5"/><circle cx="497.5" cy="202.5" r="1.5"/><circle cx="497.5" cy="207.5" r="1.5"/><circle cx="497.5" cy="212.5" r="1.5"/><circle cx="497.5" cy="217.5" r="1.5"/><circle cx="497.5" cy="222.5" r="1.5"/><circle cx="497.5" cy="227.5" r="1.5"/><circle cx="497.5" cy="232.5" r="1.5"/><circle cx="497.5" cy="237.5" r="1.5"/><circle cx="497.5" cy="242.5" r="1.5"/><circle cx="497.5" cy="247.5" r="1.5"/><circle cx="502.5" cy="27.5" r="1.5"/><circle cx="502.5" cy="32.5" r="1.5"/><circle cx="502.5" cy="37.5" r="1.5"/><circle cx="502.5" cy="42.5" r="1.5"/><circle cx="502.5" cy="47.5" r="1.5"/><circle cx="502.5" cy="52.5" r="1.5"/><circle cx="502.5" cy="57.5" r="1.5"/><circle cx="502.5" cy="62.5" r="1.5"/><circle cx="502.5" cy="67.5" r="1.5"/><circle cx="502.5" cy="72.5" r="1.5"/><circle cx="502.5" cy="77.5" r="1.5"/><circle cx="502.5" cy="82.5" r="1.5"/><circle cx="502.5" cy="102.5" r="1.5"/><circle cx="502.5" cy="107.5" r="1.5"/><circle cx="502.5" cy="187.5" r="1.5"/><circle cx="502.5" cy="192.5" r="1.5"/><circle cx="502.5" cy="197.5" r="1.5"/><circle cx="502.5" cy="212.5" r="1.5"/><circle cx="502.5" cy="217.5" r="1.5"/><circle cx="502.5" cy="222.5" r="1.5"/><circle cx="502.5" cy="227.5" r="1.5"/><circle cx="502.5" cy="232.5" r="1.5"/><circle cx="502.5" cy="237.5" r="1.5"/><circle cx="502.5" cy="242.5" r="1.5"/><circle cx="502.5" cy="247.5" r="1.5"/><circle cx="502.5" cy="257.5" r="1.5"/><circle cx="502.5" cy="262.5" r="1.5"/><circle cx="507.5" cy="27.5" r="1.5"/><circle cx="507.5" cy="32.5" r="1.5"/><circle cx="507.5" cy="37.5" r="1.5"/><circle cx="507.5" cy="42.5" r="1.5"/><circle cx="507.5" cy="47.5" r="1.5"/><circle cx="507.5" cy="52.5" r="1.5"/><circle cx="507.5" cy="57.5" r="1.5"/><circle cx="507.5" cy="62.5" r="1.5"/><circle cx="507.5" cy="67.5" r="1.5"/><circle cx="507.5" cy="72.5" r="1.5"/><circle cx="507.5" cy="77.5" r="1.5"/><circle cx="507.5" cy="82.5" r="1.5"/><circle cx="507.5" cy="87.5" r="1.5"/><circle cx="507.5" cy="102.5" r="1.5"/><circle cx="507.5" cy="187.5" r="1.5"/><circle cx="507.5" cy="192.5" r="1.5"/><circle cx="507.5" cy="197.5" r="1.5"/><circle cx="507.5" cy="202.5" r="1.5"/><circle cx="507.5" cy="207.5" r="1.5"/><circle cx="507.5" cy="212.5" r="1.5"/><circle cx="507.5" cy="217.5" r="1.5"/><circle cx="507.5" cy="222.5" r="1.5"/><circle cx="507.5" cy="227.5" r="1.5"/><circle cx="507.5" cy="232.5" r="1.5"/><circle cx="507.5" cy="237.5" r="1.5"/><circle cx="507.5" cy="242.5" r="1.5"/><circle cx="507.5" cy="247.5" r="1.5"/><circle cx="507.5" cy="257.5" r="1.5"/><circle cx="512.5" cy="27.5" r="1.5"/><circle cx="512.5" cy="32.5" r="1.5"/><circle cx="512.5" cy="37.5" r="1.5"/><circle cx="512.5" cy="42.5" r="1.5"/><circle cx="512.5" cy="47.5" r="1.5"/><circle cx="512.5" cy="52.5" r="1.5"/><circle cx="512.5" cy="57.5" r="1.5"/><circle cx="512.5" cy="72.5" r="1.5"/><circle cx="512.5" cy="77.5" r="1.5"/><circle cx="512.5" cy="82.5" r="1.5"/><circle cx="512.5" cy="87.5" r="1.5"/><circle cx="512.5" cy="92.5" r="1.5"/><circle cx="512.5" cy="192.5" r="1.5"/><circle cx="512.5" cy="197.5" r="1.5"/><circle cx="512.5" cy="207.5" r="1.5"/><circle cx="512.5" cy="212.5" r="1.5"/><circle cx="512.5" cy="217.5" r="1.5"/><circle cx="512.5" cy="222.5" r="1.5"/><circle cx="512.5" cy="227.5" r="1.5"/><circle cx="512.5" cy="232.5" r="1.5"/><circle cx="512.5" cy="237.5" r="1.5"/><circle cx="512.5" cy="242.5" r="1.5"/><circle cx="512.5" cy="247.5" r="1.5"/><circle cx="517.5" cy="27.5" r="1.5"/><circle cx="517.5" cy="32.5" r="1.5"/><circle cx="517.5" cy="37.5" r="1.5"/><circle cx="517.5" cy="42.5" r="1.5"/><circle cx="517.5" cy="47.5" r="1.5"/><circle cx="517.5" cy="52.5" r="1.5"/><circle cx="517.5" cy="57.5" r="1.5"/><circle cx="517.5" cy="192.5" r="1.5"/><circle cx="517.5" cy="197.5" r="1.5"/><circle cx="517.5" cy="217.5" r="1.5"/><circle cx="517.5" cy="222.5" r="1.5"/><circle cx="517.5" cy="227.5" r="1.5"/><circle cx="517.5" cy="232.5" r="1.5"/><circle cx="517.5" cy="237.5" r="1.5"/><circle cx="517.5" cy="242.5" r="1.5"/><circle cx="522.5" cy="22.5" r="1.5"/><circle cx="522.5" cy="27.5" r="1.5"/><circle cx="522.5" cy="32.5" r="1.5"/><circle cx="522.5" cy="47.5" r="1.5"/><circle cx="522.5" cy="192.5" r="1.5"/><circle cx="522.5" cy="222.5" r="1.5"/><circle cx="522.5" cy="227.5" r="1.5"/><circle cx="522.5" cy="232.5" r="1.5"/><circle cx="522.5" cy="237.5" r="1.5"/><circle cx="527.5" cy="27.5" r="1.5"/><circle cx="527.5" cy="32.5" r="1.5"/><circle cx="527.5" cy="192.5" r="1.5"/><circle cx="532.5" cy="192.5" r="1.5"/><circle cx="532.5" cy="197.5" r="1.5"/><circle cx="532.5" cy="267.5" r="1.5"/><circle cx="532.5" cy="272.5" r="1.5"/><circle cx="537.5" cy="197.5" r="1.5"/><circle cx="537.5" cy="267.5" r="1.5"/><circle cx="537.5" cy="272.5" r="1.5"/><circle cx="542.5" cy="197.5" r="1.5"/><circle cx="542.5" cy="202.5" r="1.5"/><circle cx="542.5" cy="217.5" r="1.5"/><circle cx="542.5" cy="262.5" r="1.5"/><circle cx="542.5" cy="267.5" r="1.5"/><circle cx="547.5" cy="207.5" r="1.5"/><circle cx="547.5" cy="222.5" r="1.5"/><circle cx="547.5" cy="257.5" r="1.5"/><circle cx="547.5" cy="262.5" r="1.5"/><circle cx="552.5" cy="247.5" r="1.5"/><circle cx="552.5" cy="252.5" r="1.5"/><circle cx="552.5" cy="257.5" r="1.5"/><circle cx="552.5" cy="262.5" r="1.5"/><circle cx="557.5" cy="252.5" r="1.5"/><circle cx="557.5" cy="257.5" r="1.5"/></svg>